<svg xmlns="http://www.w3.org/2000/svg" width="177" height="129" viewBox="0 0 177 129">
  <g id="cl-1" transform="translate(-63 -59)">
    <rect id="Rectangle_46" data-name="Rectangle 46" width="177" height="129" transform="translate(63 59)" fill="#ffffff" fill-opacity="0"/>
    <path id="Path_50" data-name="Path 50" d="M31.9,71.3l-.3-4,1-.1.2.6a.993.993,0,0,1,1-.7h.3l.1,1h-.4a.805.805,0,0,0-.8,1l.2,2Zm2.5-2.2A2.125,2.125,0,0,1,36,66.6a1.864,1.864,0,0,1,2.3,1.6v.4l-2.8.6a.948.948,0,0,0,1.1.5,1.691,1.691,0,0,0,1-.7l.8.5a2.094,2.094,0,0,1-1.5,1.1A1.856,1.856,0,0,1,34.4,69.1Zm1.8-1.5a.961.961,0,0,0-.8.9l1.8-.4A.876.876,0,0,0,36.2,67.6Zm3.4,2.5-1.5-3.7L39,66l.3.4a.964.964,0,0,1,.7-.9,1.5,1.5,0,0,1,1.3.1h0v-.1a1.309,1.309,0,0,1,.9-1,1.446,1.446,0,0,1,1.9.9l.9,2.4-1,.4L43.1,66c-.2-.4-.5-.6-.8-.4a.593.593,0,0,0-.3.9l.9,2.2-1,.4L41,66.9c-.2-.4-.5-.6-.8-.4a.593.593,0,0,0-.3.9l.9,2.2ZM44,63.2a.651.651,0,0,1-.9-.2.671.671,0,1,1,1.2-.6A.712.712,0,0,1,44,63.2Zm1.7,4.2-1.9-3.5,1-.5,1.9,3.5Zm.5-2.5a2.009,2.009,0,0,1,.5-2.9,1.946,1.946,0,0,1,2.8.6c.1.1.1.2.2.3l-2.4,1.7a.91.91,0,0,0,1.2,0,1.524,1.524,0,0,0,.6-1l.9.2a2.335,2.335,0,0,1-1,1.6A1.909,1.909,0,0,1,46.2,64.9Zm1.1-2.1a1,1,0,0,0-.4,1.1l1.5-1.1A.785.785,0,0,0,47.3,62.8Zm4,.8-2.7-2.9.7-.6.5.3a1.128,1.128,0,0,1,.3-1.1c.1-.1.2-.1.3-.2l.7.8c-.1.1-.2.1-.3.2a.854.854,0,0,0,0,1.3l1.4,1.5Zm-1.3-7,.7-.9,3.9,3,1.6-2,.9.7-2.3,3Zm5.5-.5a2.114,2.114,0,0,1-.8-2.9,2.093,2.093,0,0,1,2.8-.7c.1.1.2.1.3.2l-1.5,2.5a1,1,0,0,0,1.1-.5,1.448,1.448,0,0,0,.1-1.1l.9-.2a2.539,2.539,0,0,1-.2,1.9A1.869,1.869,0,0,1,55.5,56.1Zm0-2.4a1.048,1.048,0,0,0,.1,1.2l.9-1.6C56.2,53.1,55.8,53.3,55.5,53.7Zm4.9-2.6a2.107,2.107,0,0,1-2.7,1.1,2.081,2.081,0,0,1-1.2-2.6,1.278,1.278,0,0,1,1-.9l-.4-.3.4-.9,3.7,1.4-.4.9-.5-.1A2.2,2.2,0,0,1,60.4,51.1Zm-2.9-1.3a1.066,1.066,0,0,0,.6,1.4.961.961,0,0,0,1.3-.6,1.04,1.04,0,0,0-.6-1.3A.917.917,0,0,0,57.5,49.8Zm4.3-3.6a1.972,1.972,0,0,1-2.5,1.5,2.051,2.051,0,0,1-1.6-2.4,1.589,1.589,0,0,1,.8-1l-.5-.2.2-.9,3.7.8a2.376,2.376,0,0,1,1.5,1,2.733,2.733,0,0,1,.2,1.6,2.99,2.99,0,0,1-1.1,1.7l-.7-.8a1.879,1.879,0,0,0,.8-1.1,1.074,1.074,0,0,0-.7-1.4h-.3A1.323,1.323,0,0,1,61.8,46.2Zm-3-.8a1.02,1.02,0,1,0,1.2-.8A1.037,1.037,0,0,0,58.8,45.4ZM60.4,43l-2.1-.1V41.8l2,.1c.7,0,1-.3,1-.8a.839.839,0,0,0-.9-.9l-2-.1V39l2.1.1a1.888,1.888,0,0,1,1.9,2A1.805,1.805,0,0,1,60.4,43Zm-.2-4.3a2.049,2.049,0,0,1-2.1-2.1,1.968,1.968,0,0,1,2.1-2h.4v2.9a.993.993,0,0,0,.7-1,1.606,1.606,0,0,0-.5-1.1l.7-.7a2.289,2.289,0,0,1,.8,1.7A2.054,2.054,0,0,1,60.2,38.7Zm-1.1-2.1a.876.876,0,0,0,.7.9V35.7A.961.961,0,0,0,59.1,36.6ZM27,71.3v-6h1.9a1.948,1.948,0,0,1,2.2,2,2.022,2.022,0,0,1-2.2,2.1h-.7v2L27,71.3Zm1.2-3.1h.7c.6,0,1-.3,1-.9s-.4-.9-1-.9h-.7ZM16.1,9.3A21.629,21.629,0,0,1,20.4,12c-.1-.6-.6-3.7-.9-5.5,1.4,1,4.7,3.3,5.8,4,.4-1.4,2-5.8,2-5.8s2.8,4.5,3.2,5.2c.6-.6,3.9-4.3,4.7-5.2.1,2.1.3,5.1.4,5.6a17.913,17.913,0,0,1,3.6-3.6A19.49,19.49,0,0,0,37.6,13a23.909,23.909,0,0,0-6.6-.9,23.416,23.416,0,0,0-12,3.2A15.223,15.223,0,0,0,16.1,9.3Zm0,0A21.629,21.629,0,0,1,20.4,12c-.1-.6-.6-3.7-.9-5.5,1.4,1,4.7,3.3,5.8,4,.4-1.4,2-5.8,2-5.8s2.8,4.5,3.2,5.2c.6-.6,3.9-4.3,4.7-5.2.1,2.1.3,5.1.4,5.6a17.913,17.913,0,0,1,3.6-3.6A19.49,19.49,0,0,0,37.6,13a23.909,23.909,0,0,0-6.6-.9,23.416,23.416,0,0,0-12,3.2A15.223,15.223,0,0,0,16.1,9.3ZM49.5,47.5l-1.9-2.1a18.4,18.4,0,0,1-8.5,14l-.8-3.1c-4.4,3.2-11.9,5.2-18.4,1.6.8-4.1,1.5-8.2,0-13.2-3.6,5.5-6.8,7.7-6.8,7.7-2.4-4.1-2.2-12.2-1.5-14.6L7.6,39c0-2.7,2-8.6,4.8-11.8l-2.5-.4h0A24.245,24.245,0,0,1,17.3,18h0c-.9,1.5-1,5.1,1.8,6.5-1.2-2-1.3-4.6-.1-5.9s3.3-.9,4.6.2a3.935,3.935,0,0,0-3.2-2.7h0a22.975,22.975,0,0,1,10.8-2.6,16.95,16.95,0,0,1,2.2.1h0a12.81,12.81,0,0,1,3.6,3,5.379,5.379,0,0,0-.6-2.6c4.2,1,6.2,2.7,7,3.6a15.281,15.281,0,0,0,1.4,4.6,24.562,24.562,0,0,0-6.4-4.6,4.923,4.923,0,0,1-.7,2.3A24.288,24.288,0,0,0,32.9,17a13.126,13.126,0,0,0-7.1,3l1.1.9a7.6,7.6,0,0,0-3.5,2.5l1.9.3s-.2,2.2,2.6,3.6c2.4,1.2,5.9-.3,9.1,1a23.618,23.618,0,0,0-3.6-3.6,8.794,8.794,0,0,0-1.4-.2,7.156,7.156,0,0,1-3.1-.3,6.368,6.368,0,0,1-1.8-1,7.725,7.725,0,0,1,3.7-1.9A13.306,13.306,0,0,1,34.3,23a3.236,3.236,0,0,1,2.1-1,2.514,2.514,0,0,0-.8,2.2,38.417,38.417,0,0,1,3.3,3.4c1.7-.9,5.5-.7,6.3.2a20.718,20.718,0,0,0-3.5-3.2,10.166,10.166,0,0,0-1.5-2.3,7.2,7.2,0,0,1,2.1,1.3,2.771,2.771,0,0,1,1.6-1,2.452,2.452,0,0,1,.9,1.8,2.228,2.228,0,0,1-.7.6l1.8,2,.2-1.4C50.2,31.7,52.5,38.7,49.5,47.5Zm-8-13V31.4a9.242,9.242,0,0,1-2.9-1.6c-3,.5-6.6,3.5-6.6,3.5s1.2,2.3,2.6,4.8C37,38.4,40.4,35.4,41.5,34.5Zm3,5.6a5.282,5.282,0,0,0-1.3-2.5l-2.3.1s-3.1,2.7-5.1,2.8c0,0,1.1,2,1.6,3a8.723,8.723,0,0,0,3.7-1.9,11.115,11.115,0,0,1,.4,3.5A7.672,7.672,0,0,0,44.5,40.1Zm1-10.2a12.756,12.756,0,0,1-2.2,1.5v3.1a10.885,10.885,0,0,1,2.3,3.1C46.8,35.6,46.6,32.5,45.5,29.9Z" transform="translate(115.4 85.3)" fill="#36033b"/>
  </g>
</svg>
