<svg xmlns="http://www.w3.org/2000/svg" width="177" height="129" viewBox="0 0 177 129">
  <g id="cl-16" transform="translate(-1680 -214)">
    <rect id="Rectangle_55" data-name="Rectangle 55" width="177" height="129" transform="translate(1680 214)" fill="#ffffff" fill-opacity="0"/>
    <g id="Group_70" data-name="Group 70" transform="translate(1738 248)">
      <rect id="Rectangle_12" data-name="Rectangle 12" width="61" height="61" fill="#130c0d"/>
      <g id="Group_69" data-name="Group 69" transform="translate(13.5 22.3)">
        <path id="Path_143" data-name="Path 143" d="M1100.6,156.5v3.3h4.4v2.9h-4.4v6.4h-3.1V154.5c0-.8.3-1.1,1.1-1.1h7.4v3h-5.4Z" transform="translate(-1097.5 -153)" fill="#fff"/>
        <path id="Path_144" data-name="Path 144" d="M1107,169.2V154.6c0-.8.3-1.1,1.1-1.1h2.1v15.7H1107Z" transform="translate(-1097.5 -153)" fill="#fff"/>
        <g id="Group_67" data-name="Group 67" transform="translate(14.2 0.5)">
          <path id="Path_145" data-name="Path 145" d="M1117.9,158.1a1.722,1.722,0,0,1-1.6,1.9v2.6a1.74,1.74,0,0,1,1.7,1.9c0,1.3-.7,1.9-1.7,1.9v2.7h.1c2.7,0,4.7-1.5,4.7-4.5h0c0-2.1-1.1-3.1-2-3.4.7-.3,1.9-1.2,1.9-3.6,0-2.2-1.5-4.1-4.7-4.1v2.6a1.817,1.817,0,0,1,1.6,2Zm-1.6,1.9h-1.6v-3.8h1.6v-2.6h-3.5c-.8,0-1.1.3-1.1,1.1v14.6h4.6v-2.7c-.1.1-.1.1-.2.1h-1.4v-3.9h1.6Z" transform="translate(-1111.7 -153.5)" fill="#fff"/>
        </g>
        <g id="Group_68" data-name="Group 68" transform="translate(24.9)">
          <path id="Path_146" data-name="Path 146" d="M1128.5,161H1127v2.9h1.5v5.3h3.1V157.4a4.248,4.248,0,0,0-4.6-4.3V156c1.3,0,1.5,1.1,1.5,1.8V161Zm-1.5,0h-1.4v-3.3c0-.6.2-1.8,1.4-1.8h0V153h0a4.248,4.248,0,0,0-4.6,4.3v11.8h3.1v-5.3h1.4V161Z" transform="translate(-1122.4 -153)" fill="#fff"/>
        </g>
      </g>
    </g>
  </g>
</svg>
