<svg xmlns="http://www.w3.org/2000/svg" width="177" height="129" viewBox="0 0 177 129">
  <g id="cl-12" transform="translate(-706 -214)">
    <rect id="Rectangle_56" data-name="Rectangle 56" width="177" height="129" transform="translate(706 214)" fill="#ffffff" fill-opacity="0"/>
    <g id="Group_66" data-name="Group 66" transform="translate(778 242)">
      <path id="Path_138" data-name="Path 138" d="M508.4,122.3H491.1a7.6,7.6,0,0,0-7.6,7.6v58.4a7.6,7.6,0,0,0,7.6,7.6h17.2a7.6,7.6,0,0,0,7.6-7.6V130a7.534,7.534,0,0,0-7.5-7.7" transform="translate(-483.5 -122.3)" fill="#fff"/>
      <path id="Path_139" data-name="Path 139" d="M504.1,135.9v.2c.5.3.8.6,1.3.9,1.4.9,3.1,2.5,2.9,7.9.4,1.2.6,3.5.9,4.3a12.629,12.629,0,0,1,1.4,3.8s.2,2.1.5,2.3c1.5.3,1,.5,1.2.7.2.3,1.1.3,1.1,1.1a7.46,7.46,0,0,1,.7,1.2V130a5.8,5.8,0,0,0-5.8-5.8h-5.6a2.621,2.621,0,0,1,1.7,1.3c.7.1,1.6,1.7.2,4.1.6.4.1,1-.3,1.7-.1.2-.3.6-.7.6-.5,1.1-1.1,2.1-1.6,2.2-.1.2-.2.6,0,.8a4.133,4.133,0,0,1,2.1,1" transform="translate(-483.5 -122.3)" fill="#c51633"/>
      <path id="Path_140" data-name="Path 140" d="M514.2,162a5.237,5.237,0,0,1-4.8,3.3,5.164,5.164,0,0,1-5.2-5.2,5.254,5.254,0,0,1,4-5.1c-.6-1.5-1.9-3.9-2.2-4.7a66,66,0,0,1-1.4-6.7,8.984,8.984,0,0,0-2.2,1.4c-.1.1-1.7,4.1-1.7,4.3v.7s.7.1,1.2,1.4c.4,1.3,1.7,6.1,1.7,6.1s-.4.4-.4.3c1.6,5.5,1.1,7.9,1.8,9.5.9,2.3,1.2,2,2,3.9.6,1.4,1.2,6.9,1.4,7.1a5.1,5.1,0,0,1,1.4,2.6c0,.6-.8,2.5-.5,3.6.2.6.3,2.1.6,2.4,0,0,.3.5.1.8,0,.1-.1.2-.1.3.5,1.7,2.1,4.7-.5,6.2h.1a5.749,5.749,0,0,0,4.9-5.8V162Z" transform="translate(-483.5 -122.3)" fill="#c51633"/>
      <path id="Path_141" data-name="Path 141" d="M507.6,187.3c-.9-.8-.3-1.2-.3-1.5-.6-2.6-2.6-4.1-1.6-4.9-.3-.8-.8-1.9-.8-1.9a29.326,29.326,0,0,1-6.3-5.2c-.6-.6-1.5-1.2-1.7-1.7a51.1,51.1,0,0,1-5.4-7.9L490,164c-.7-2.8-3-5.2-3-8a16.166,16.166,0,0,1,.7-3.8,4.429,4.429,0,0,1,1.1-1.2v-.8c-3.3.1-2.3-.2-2.9-1.5-.4-.9-.1-1.1,0-1.7a36.089,36.089,0,0,1,2.5-5.9c.2-.6.8-2.2.8-2.2,2.5-5,3.4-4.6,6.3-4.9l.1-.2c2.9-.1,2.4-.3,2.9-3.2-.4.2-.6-.9-.6-.9-.2-1.6.4-1.3.8-1.3.1-2.6.3-3.5,2.2-4.2H491a5.8,5.8,0,0,0-5.8,5.8v58.4a5.8,5.8,0,0,0,5.8,5.8h17.3C506.4,193.2,507.6,191.2,507.6,187.3Z" transform="translate(-483.5 -122.3)" fill="#1f4487"/>
      <path id="Path_142" data-name="Path 142" d="M494.4,190.6V180h2.1c1.2,0,1.9.6,1.9,2.1v1.6c0,1-.3,1.5-.7,1.7a1.874,1.874,0,0,1,.7,1.6v1.5c0,1.5-.8,2.1-1.9,2.1Zm1.4-4.6v3.3h.5c.5,0,.6-.3.6-.8v-1.8c0-.5-.2-.7-.6-.7Zm0-4.7v3.5h.5c.5,0,.6-.2.6-.8v-2c0-.5-.1-.7-.6-.7Zm5.9,7.1h-1.3l-.2,2.1h-1.4l1.3-10.6h2l1.2,10.6h-1.5Zm-.7-7.2h0c-.2,1.3-.3,3.5-.4,4.2l-.2,1.8h1.1l-.2-1.8a37.283,37.283,0,0,0-.3-4.2m-10.8,9.4H489V180h2l1.6,8.7c-.1-2.1-.3-4.6-.3-6.7v-2h1.2v10.6h-1.8l-1.6-8.5c.1,2,.1,3.5.1,5.1v3.4Z" transform="translate(-483.5 -122.3)" fill="#fff"/>
    </g>
  </g>
</svg>
