<svg xmlns="http://www.w3.org/2000/svg" width="177" height="129" viewBox="0 0 177 129">
  <g id="cl-14" transform="translate(-1190 -214)">
    <rect id="Rectangle_54" data-name="Rectangle 54" width="177" height="129" transform="translate(1190 214)" fill="#ffffff" fill-opacity="0"/>
    <g id="Group_65" data-name="Group 65" transform="translate(1249 249)">
      <rect id="Rectangle_11" data-name="Rectangle 11" width="60" height="60" fill="#0c161c"/>
      <g id="Group_64" data-name="Group 64" transform="translate(12.9 21.5)">
        <path id="Path_135" data-name="Path 135" d="M787.5,152.5l3.4,7.6h.4v-7.6h3.4v13.9h-4.1l-3.4-7.6h-.4v7.6h-3.4V152.5Z" transform="translate(-783.4 -152.5)" fill="#fff"/>
        <path id="Path_136" data-name="Path 136" d="M802.8,152.5a4.49,4.49,0,0,1,4.2,2.4v4.5a4.591,4.591,0,0,1-4.2,2.4h-2.4v4.7h-3.7V152.6l6.1-.1Zm.7,5.7v-2.1a1.562,1.562,0,0,0-1.5-.8h-1.5V159H802A1.763,1.763,0,0,0,803.5,158.2Z" transform="translate(-783.4 -152.5)" fill="#fff"/>
        <path id="Path_137" data-name="Path 137" d="M814.8,152.5a4.5,4.5,0,0,1,4,2.4v2.9a3.56,3.56,0,0,1-1.4,1.3,4.009,4.009,0,0,1,1.5,1.4v3.6a4.657,4.657,0,0,1-4.2,2.4h-6.2V152.6l6.3-.1Zm.7,4.9V156a1.541,1.541,0,0,0-1.5-.8h-1.6v2.9h1.7A1.749,1.749,0,0,0,815.5,157.4Zm.1,5.6v-1.7a1.73,1.73,0,0,0-1.5-.8h-1.7v3.2h1.7A1.579,1.579,0,0,0,815.6,163Z" transform="translate(-783.4 -152.5)" fill="#fff"/>
      </g>
    </g>
  </g>
</svg>
