<svg xmlns="http://www.w3.org/2000/svg" width="177" height="129" viewBox="0 0 177 129">
  <g id="cl-10" transform="translate(-275 -214)">
    <rect id="Rectangle_58" data-name="Rectangle 58" width="177" height="129" transform="translate(275 214)" fill="#ffffff" fill-opacity="0"/>
    <g id="Group_18" data-name="Group 18" transform="translate(330 247)">
      <g id="Group_14" data-name="Group 14" transform="translate(0.2 5.1)">
        <path id="Path_27" data-name="Path 27" d="M224.4,148.9h-3l-.4-1.3a3.183,3.183,0,0,1-3,1.7,3.869,3.869,0,0,1-3.7-1.9,10.417,10.417,0,0,1-.9-4.9v-5.6c0-2.4.3-4.2,1-5.2.8-1.3,2.3-1.9,4.4-1.9s3.6.6,4.5,1.8c.8,1,1.1,2.6,1.1,4.7v.8h-4.8v-2a6.727,6.727,0,0,0-.1-1.8.6.6,0,0,0-.6-.3.548.548,0,0,0-.6.4,6.727,6.727,0,0,0-.1,1.8v9a7.156,7.156,0,0,0,.1,1.7.548.548,0,0,0,.6.4.67.67,0,0,0,.7-.4,5.136,5.136,0,0,0,.2-1.6v-2.4h-.9v-2.8h5.5Z" transform="translate(-213.4 -129.7)" fill="#0f0708"/>
        <path id="Path_28" data-name="Path 28" d="M237.1,141.2c0,3.1-.3,5.1-.9,6.2-.7,1.3-2.3,1.9-4.6,1.9-2.2,0-3.7-.7-4.5-2-.7-1.1-1-3.2-1-6.2v-3.2c0-3,.3-5,1-6.2.8-1.3,2.3-2,4.5-2s3.8.7,4.5,2c.6,1.1,1,3.2,1,6.2Zm-4.7,2.5V135a6.7,6.7,0,0,0-.1-1.7.675.675,0,0,0-.6-.4.548.548,0,0,0-.6.4,6.252,6.252,0,0,0-.1,1.7v8.7a8.229,8.229,0,0,0,.1,2,.675.675,0,0,0,.6.4.548.548,0,0,0,.6-.4C232.3,145.4,232.4,144.8,232.4,143.7Z" transform="translate(-213.4 -129.7)" fill="#0f0708"/>
        <path id="Path_29" data-name="Path 29" d="M246.6,148.9h-7.7V130.2h4.8v15h2.9Z" transform="translate(-213.4 -129.7)" fill="#0f0708"/>
        <path id="Path_30" data-name="Path 30" d="M258.8,143.4c0,2.4-.3,3.9-.8,4.5-.6.7-2,1.1-4.2,1.1h-6V130.2h3.6c3.3,0,5.3.4,6.2,1.2.8.8,1.3,2.6,1.3,5.5l-.1,6.5ZM254,143v-7.3a5.377,5.377,0,0,0-.1-1.6c-.1-.5-.6-.8-1.4-.8v12.3c.6,0,1-.1,1.2-.4A4.485,4.485,0,0,0,254,143Z" transform="translate(-213.4 -129.7)" fill="#0f0708"/>
        <path id="Path_31" data-name="Path 31" d="M268.8,148.9h-8.3V130.2h8V134h-3.2v3.5h3v3.6h-3v4.1h3.5Z" transform="translate(-213.4 -129.7)" fill="#0f0708"/>
        <path id="Path_32" data-name="Path 32" d="M280.8,148.9h-4.2l-2.5-8.5v8.5h-4V130.2h4l2.7,8.5v-8.5h4Z" transform="translate(-213.4 -129.7)" fill="#0f0708"/>
      </g>
      <rect id="Rectangle_8" data-name="Rectangle 8" width="67.5" height="2.6" transform="translate(0.2 60.8)" fill="#8c734b"/>
      <rect id="Rectangle_9" data-name="Rectangle 9" width="67.5" height="2.6" transform="translate(0.2)" fill="#8c734b"/>
      <g id="Group_15" data-name="Group 15" transform="translate(0 27.2)">
        <path id="Path_33" data-name="Path 33" d="M231.6,173.8c0,3.9-.4,6.2-1.1,7.1-1,1.2-3.8,1.9-8.2,1.9h-9.1v-31H221c3.7,0,6.3.6,7.7,1.8s2.1,3.5,2.1,7a6.524,6.524,0,0,1-.8,3.7,5.593,5.593,0,0,1-3.3,1.7,5.959,5.959,0,0,1,3.9,2.5C231.3,169.6,231.6,171.2,231.6,173.8Zm-7.9-13.7c0-1.3-.1-2.1-.4-2.4a3.159,3.159,0,0,0-2.1-.5v6.9c1.2,0,1.9-.2,2.2-.6A11.956,11.956,0,0,0,223.7,160.1Zm0,12.3a7.05,7.05,0,0,0-.4-3.1c-.3-.4-1-.6-2.2-.6v8.6c1.1,0,1.9-.2,2.1-.7C223.5,176.2,223.7,174.8,223.7,172.4Z" transform="translate(-213.2 -151.8)" fill="#0f0708"/>
        <path id="Path_34" data-name="Path 34" d="M280.8,151.8l-5.7,19.7v11.2h-7.3V171.5l-5.5-19.7h7.1l2,12.2,2.2-12.2Z" transform="translate(-213.2 -151.8)" fill="#0f0708"/>
      </g>
      <g id="Group_16" data-name="Group 16" transform="translate(44 55.6)">
        <path id="Path_35" data-name="Path 35" d="M258,182.6v-2h-.8v-.4h1.9v.4h-.6v2Z" transform="translate(-257.2 -180.2)" fill="#0f0708" fill-rule="evenodd"/>
        <path id="Path_36" data-name="Path 36" d="M259.5,182.6v-2.4h.7l.4,1.6.4-1.6h.8v2.4h-.5v-1.9l-.5,1.9h-.3l-.5-1.9v1.9Z" transform="translate(-257.2 -180.2)" fill="#0f0708" fill-rule="evenodd"/>
      </g>
      <g id="Group_17" data-name="Group 17" transform="translate(20.7 26.5)">
        <path id="Path_37" data-name="Path 37" d="M250.5,181.9Z" transform="translate(-233.9 -151.1)" fill="none"/>
        <path id="Path_38" data-name="Path 38" d="M242.5,160.6a1.817,1.817,0,0,1-1.4.3h0c.2.1.3.2.5.3l.3.1c.2,0,.5.1.6.1a1.759,1.759,0,0,1,.1-.6C242.5,160.7,242.6,160.6,242.5,160.6Z" transform="translate(-233.9 -151.1)" fill="none"/>
        <path id="Path_39" data-name="Path 39" d="M248.1,180.6h-.2a.758.758,0,0,1-.4-.2,15.628,15.628,0,0,1-2.1-2.4c-.1-.2-.4-.6-.6-1a9.226,9.226,0,0,1-.5.8c-.2.3-1.2,2.2-1.3,2.3l-.1.1a11.418,11.418,0,0,0,3.3.5A5.919,5.919,0,0,0,248.1,180.6Z" transform="translate(-233.9 -151.1)" fill="none"/>
        <path id="Path_40" data-name="Path 40" d="M256.5,169.2a4.35,4.35,0,0,1-.7-.4h0a.1.1,0,0,1-.1-.1,4.363,4.363,0,0,1-.8-1h0a.1.1,0,0,0-.1-.1l-.3-.3c-.2-.2-.3-.4-.4-.5a6.054,6.054,0,0,1-1.8-2.3,9.386,9.386,0,0,0-1.4,1.2,11.5,11.5,0,0,0-1.3,2l.1.1a.367.367,0,0,1,.1.3h0v.2a8.659,8.659,0,0,0-.2,1,1.38,1.38,0,0,1,.4.3h0a1.628,1.628,0,0,1,.3.6c.1.3.3.6.4.9.3.7.6,1.4.7,1.6a47.082,47.082,0,0,1,2.2,4.5,10.177,10.177,0,0,0,2.7-7A1.5,1.5,0,0,0,256.5,169.2Z" transform="translate(-233.9 -151.1)" fill="none"/>
        <path id="Path_41" data-name="Path 41" d="M236.9,175.1c.3-1.1.7-2,1.1-3.2h0s1.1-2.1,1.8-3.2c.2-.3.3-.6.5-.7.1-.3.6-1.9.6-1.9a.781.781,0,0,1,.4-.4h.1c.1-.2.1-.5.2-.7a8.113,8.113,0,0,1-1.1-.3c-.3-.1-.4-.2-.5-.2-.2-.2-.3-.3-.3-.5-.3-.1-.8-.3-1.2-.4a10.112,10.112,0,0,0-2.7,6.9A10.388,10.388,0,0,0,236.9,175.1Z" transform="translate(-233.9 -151.1)" fill="none"/>
        <path id="Path_42" data-name="Path 42" d="M257.8,169.2a1.268,1.268,0,0,1-.6.1c-.2,0-.4-.1-.6-.1,0,.4.1.7.1,1.1a10.177,10.177,0,0,1-2.7,7,6.416,6.416,0,0,1,.5,1.1c0,.1.1.2.1.4,0,.1,0,.1-.1.2s-.2.2-.3.2h0c.1.2.1.1.1.3l.1.2-.2.1-.1.1h0a12.256,12.256,0,0,0,4.5-9.6,8.083,8.083,0,0,0-.1-1.6c-.3.2-.5.4-.7.5Z" transform="translate(-233.9 -151.1)" fill="#8c734b"/>
        <path id="Path_43" data-name="Path 43" d="M236.9,175.1a10.493,10.493,0,0,1-1.1-4.7,9.93,9.93,0,0,1,2.7-6.9,1.1,1.1,0,0,1-.4-.2H238l-.5-.3c-.3-.2-.6-.2-.9-.4a12.3,12.3,0,0,0-2.7,7.8,12.509,12.509,0,0,0,2.4,7.3c.1-.3.2-.8.3-1.2A10.628,10.628,0,0,1,236.9,175.1Z" transform="translate(-233.9 -151.1)" fill="#8c734b"/>
        <path id="Path_44" data-name="Path 44" d="M249.9,181.6h0l-1.3-1h-.5a12.31,12.31,0,0,1-2,.2,12.573,12.573,0,0,1-3.3-.5c-.1.1-.1.1-.2.1a3.42,3.42,0,0,1-1.1.1h-.2a3.592,3.592,0,0,1-.7,1h0a13.161,13.161,0,0,0,5.6,1.3,12.088,12.088,0,0,0,3.8-.6l-.2.1A3.548,3.548,0,0,1,249.9,181.6Z" transform="translate(-233.9 -151.1)" fill="#8c734b"/>
        <path id="Path_45" data-name="Path 45" d="M253.1,178.9l.3-.1.3-.1s-1.8-3.9-2.7-5.6c-.3-.5-1.2-2.7-1.4-3a6.122,6.122,0,0,0-.6-.5,5.665,5.665,0,0,1,.3-1.5c-.1-.1-.2-.1-.3-.2a9.607,9.607,0,0,1,1.5-2.7,8.735,8.735,0,0,1,2.3-1.8,5,5,0,0,0,1.9,2.8l.8,1a2.757,2.757,0,0,0,.7.9c.1.1.8.7,1.3.4a8.526,8.526,0,0,0,2.4-2.2c.2-.1.4,0,.5-.1.5-.3.6-.9,1-1.1a6.9,6.9,0,0,0,1.6-1.8,1.4,1.4,0,0,0,0-1.4c-.4-.8-.4-2-1.9-2.1h-.6a1.081,1.081,0,0,0-1.1.7c0,.1.1.3,0,.4-.4.5-.1,1.1.2,1.6v.1c-.1.2,0,.4,0,.6a10.591,10.591,0,0,1-1,1.2.6.6,0,0,0-.1.4,10.931,10.931,0,0,0-1.5.8,1.445,1.445,0,0,1-.2-.7,2.614,2.614,0,0,0-1.2-2.1c-.2-.2.2-1.2-.7-2.4a3.339,3.339,0,0,0-1.3-1.1c-.4-.3-.3-.6-.6-.9-.2.1-.3.2-.5.2h-.4l-.8-.4c-.1-.1-.3-.2-.4-.4.2.1.3.2.4.2s.1.1.2.1a.349.349,0,0,1,.2.1h0a1.338,1.338,0,0,0,.5.1c.2,0,.3-.1.7-.3h0c.1,0,.1-.1.2-.1s.1-.1.2-.2c.2-.1.4-.3.4-.4l.2-.2.2-.2a12.49,12.49,0,0,0,.9-1.2,6.127,6.127,0,0,1,.4-.6.438.438,0,0,0,.3-.1.438.438,0,0,1-.3-.1c.2,0,.5,0,.6-.2,0,0-.3,0-.3-.1.5,0,.6-.3.6-.3-.1,0-.4,0-.5-.1a.467.467,0,0,0,.5-.2c-.3-.1-.4-.3-.6-.6h0a.349.349,0,0,0-.1-.2,2.633,2.633,0,0,0-1.8-1.5l-.3-.1.2-.1a1.829,1.829,0,0,0-1.1,0l.1-.2a3.92,3.92,0,0,0-.9.4c-.1.1-.4.3-.6.5a3.458,3.458,0,0,0-.7,1.2l-.1-.1a.138.138,0,0,0-.2,0,2.035,2.035,0,0,0-.6,1.5c0,.1.2.2.3.3l-.2.5c-.1.2-.3.6-.6.5a6.59,6.59,0,0,0-1-.3c-.5-.1-1.1,0-1.6-.1a4.353,4.353,0,0,0-2.2-.3,4.2,4.2,0,0,0-2.7,1.4c-.6.7-1.4.5-2.2,1a23.483,23.483,0,0,0-2.5,1.9,3.1,3.1,0,0,0-.6,1.3,1.314,1.314,0,0,0,.3,1,9.758,9.758,0,0,1,1.6.7l1.9.7c.1.2,0,.4.2.5l.2.1c.3.1,1.1.3,1.5.4.1,0,.1.1.2.1a5.488,5.488,0,0,1-.5,1.7h-.3a.1.1,0,0,0-.1.1l-.6,2a6.831,6.831,0,0,0-.8,1.1c-.2.3-.3.6-.5.9l-.3.6c-.2.4-.4.8-.6,1.3-.9,2.2-1.6,5.1-2,6.2h0c.2.2.4.5.6.7h0l.1.1a4.62,4.62,0,0,1,.7.7h0a5.548,5.548,0,0,0,.8.6h0l.1.1h0a3.509,3.509,0,0,0,.8.5h0a4.508,4.508,0,0,0,1-1.4,7.358,7.358,0,0,0,1.6,0s1.1-1.9,1.2-2.2c.8-1.4,1.2-1.6,1.2-1.6s.6.9.9,1.4a21.214,21.214,0,0,0,2.2,2.6h1c.6.6,1.6,1.4,1.6,1.4.1.2,0,.4,0,.7h0a4.875,4.875,0,0,1,.7-.3h0a.1.1,0,0,0,.1-.1h0a4.875,4.875,0,0,1,.7-.3h0c.2-.1.5-.3.7-.4h0c.2-.2.5-.3.7-.5h0A1.845,1.845,0,0,0,253.1,178.9Zm-7.2-14a1,1,0,0,1-1.1.5c.4,0,.6-.2.9-.5a4.385,4.385,0,0,0,.6-2.3,1.125,1.125,0,0,0-.4-.5,1.727,1.727,0,0,0-.2-.7c-.2-.4-1.2-.3-1.5-.3a6.758,6.758,0,0,0-1.5.8v-.1l-1.3-.3a.1.1,0,0,0-.1.1c-.4-.2-.7-.7-1-1h0c1.1-.2,1.5.3,2.8-1,.1.1.1.3.1.6,0,.2-.1.6-.1,1.1a5.133,5.133,0,0,1,1.2-.5c.3,0,1.6-.1,1.8.3a1.993,1.993,0,0,1,.2.8,1.082,1.082,0,0,1,.4.6A8.292,8.292,0,0,1,245.9,164.9Z" transform="translate(-233.9 -151.1)" fill="#231f20"/>
        <path id="Path_46" data-name="Path 46" d="M246.1,161.8a1.993,1.993,0,0,0-.2-.8c-.2-.4-1.5-.3-1.8-.3a5.133,5.133,0,0,0-1.2.5c0-.5.1-.9.1-1.1,0-.3.1-.5-.1-.6-1.3,1.3-1.6.8-2.8,1h0c.3.2.6.7,1,1a.1.1,0,0,0,.1-.1l1.3.3v.1a6.758,6.758,0,0,1,1.5-.8c.3,0,1.3-.1,1.5.3a1.727,1.727,0,0,1,.2.7,1.125,1.125,0,0,1,.4.5,3.613,3.613,0,0,1-.6,2.3.73.73,0,0,1-.7.6,1,1,0,0,0,1.1-.5,4.168,4.168,0,0,0,.6-2.5C246.4,161.9,246.1,161.8,246.1,161.8Zm-3.6-.4a1.486,1.486,0,0,1-.6-.1l-.3-.1c-.2-.1-.3-.2-.5-.3h0c.6-.1.7.1,1.4-.3.1,0,0,.2,0,.2C242.5,160.9,242.5,161.4,242.5,161.4Z" transform="translate(-233.9 -151.1)" fill="#fff"/>
        <path id="Path_47" data-name="Path 47" d="M263.8,161.8h0c-.1-.2-.1-.4-.2-.6a2.271,2.271,0,0,0-2.2-1.9h-.6a2.031,2.031,0,0,0-1.7,1.1v.4h0a1.854,1.854,0,0,0-.2.7,3.5,3.5,0,0,0,.3,1.2v.4a9.683,9.683,0,0,1-.7.9l-.1.1a.52.52,0,0,0-.2.4,2.186,2.186,0,0,1-.5.3,3.668,3.668,0,0,0-1.2-2.1v-.1a3.894,3.894,0,0,0-.8-2.3,3.17,3.17,0,0,0-1.1-1l-.4-.3h0v-.1c-.1-.1-.1-.3-.2-.5.2-.2.5-.4.7-.6l.2-.2c.3-.3.8-.9,1.2-1.4l.2-.4a.864.864,0,0,0,.6-.3.1.1,0,0,0,.1-.1.31.31,0,0,0,.1-.2.914.914,0,0,0,.3-.5v-.4a.367.367,0,0,0-.1-.3c-.1-.2-.2-.3-.4-.3a.1.1,0,0,0-.1-.1l-.1-.1h0l-.1-.2a3.513,3.513,0,0,0-2-1.8c-.1-.1-.2-.2-.3-.2a2.485,2.485,0,0,0-.8-.1h-.2c-.1,0-.2-.1-.3-.1h-.1a4.78,4.78,0,0,0-1.2.5,1.542,1.542,0,0,0-.7.7h0l-.1.1a3.039,3.039,0,0,1-.5.7.1.1,0,0,0-.1.1h0c-.1,0-.2.1-.3.2a2.724,2.724,0,0,0-.8,1.7v.3c0,.1.1.1.1.2s-.1.1-.1.2a6.369,6.369,0,0,0-.7-.2h-.8a1.949,1.949,0,0,1-.8-.1,6.047,6.047,0,0,0-2.2-.4h-.2a4.681,4.681,0,0,0-3.1,1.6c-.2.3-.5.3-.9.4a7.6,7.6,0,0,0-1.1.4h0a29.274,29.274,0,0,0-2.6,1.9l-.1.1a3.805,3.805,0,0,0-.8,1.7v.3a1.415,1.415,0,0,0,.6,1.3.31.31,0,0,0,.2.1h0a1.884,1.884,0,0,1,.9.4l.5.3h.1l.4.2c.4.1.9.3,1.2.4a.914.914,0,0,0,.3.5.588.588,0,0,0,.5.2c.2.1.8.2,1.1.3a2.544,2.544,0,0,1-.2.7h-.1c-.2.1-.4.2-.4.4,0,0-.5,1.6-.6,1.9a5,5,0,0,1-.5.7c-.7,1.1-1.8,3.2-1.8,3.2h0a20.211,20.211,0,0,0-1.1,3.2c-.1.4-.3.9-.4,1.4-.1.4-.2.9-.3,1.2l.2.3.1.1.2.2c.4-1,1-3.9,2-6.2.2-.5.4-.9.6-1.3l.3-.6c.2-.3.3-.6.5-.9a6.831,6.831,0,0,1,.8-1.1l.6-2a.1.1,0,0,1,.1-.1h.3a10.927,10.927,0,0,0,.5-1.7c-.1,0-.1-.1-.2-.1a15.468,15.468,0,0,1-1.5-.4s-.2,0-.2-.1c-.2-.1-.1-.3-.2-.5l-1.9-.7c-.5-.2-1.3-.6-1.6-.7-.3-.2-.3-.6-.3-1a3.1,3.1,0,0,1,.6-1.3c.6-.5,1.8-1.4,2.5-1.9.8-.5,1.6-.3,2.2-1a3.978,3.978,0,0,1,2.7-1.4,8.329,8.329,0,0,1,2.2.3c.5.1,1.2,0,1.6.1a6.59,6.59,0,0,1,1,.3c.2.1.5-.4.6-.5l.2-.5-.3-.3a2.035,2.035,0,0,1,.6-1.5c.1,0,.2-.1.2,0a.1.1,0,0,0,.1.1,12.751,12.751,0,0,1,.7-1.2,1.176,1.176,0,0,1,.6-.5,3.919,3.919,0,0,1,.9-.4l-.1.2a1.2,1.2,0,0,1,1.1,0l-.2.1.3.1a2.633,2.633,0,0,1,1.8,1.5.349.349,0,0,0,.1.2h0a.9.9,0,0,0,.6.6s-.1.2-.5.2c.1.1.4.1.5.1a.466.466,0,0,1-.6.3.494.494,0,0,0,.3.1c-.1.2-.4.2-.6.2a.438.438,0,0,0,.3.1.192.192,0,0,1-.3.1,6.124,6.124,0,0,0-.4.6l-.9,1.2-.2.2-.1.2-.4.4c-.1.1-.2.1-.2.2-.1.1-.1.1-.2.1h0c-.3.2-.4.3-.7.3a1.087,1.087,0,0,1-.5-.1h0c-.1,0-.1-.1-.2-.1s-.1-.1-.2-.1c-.1-.1-.3-.1-.4-.2.1.2.3.3.4.4.2.1.6.4.8.4h.4a1.69,1.69,0,0,0,.5-.2c.3.3.1.7.6.9a3.339,3.339,0,0,1,1.3,1.1,3.848,3.848,0,0,1,.7,2.4,2.614,2.614,0,0,1,1.2,2.1,1.854,1.854,0,0,0,.2.7,10.931,10.931,0,0,1,1.5-.8.6.6,0,0,1,.1-.4,10.591,10.591,0,0,0,1-1.2c0-.2-.1-.4,0-.6,0,0,.1,0,0-.1-.3-.5-.6-1.1-.2-1.6v-.4a1.23,1.23,0,0,1,1.1-.7h.6c1.5.1,1.5,1.3,1.9,2.1a1.4,1.4,0,0,1,0,1.4,8.991,8.991,0,0,1-1.6,1.8c-.5.3-.6.8-1,1.1a1.087,1.087,0,0,1-.5.1,10.153,10.153,0,0,1-2.4,2.2c-.5.3-1.2-.3-1.3-.4a7.05,7.05,0,0,1-.7-.9l-.8-1a5,5,0,0,1-1.9-2.8,12.01,12.01,0,0,0-2.3,1.8,7.642,7.642,0,0,0-1.5,2.7c.1,0,.3.1.3.2-.1.3-.2,1-.3,1.5.6.3.5.3.6.5.2.2,1.1,2.4,1.4,3,.9,1.6,2.7,5.6,2.7,5.6l-.6.1-.3.1c.1.3.4.8.6,1.3h0l.1-.1.4-.4-.1-.2c-.1-.2,0-.1-.1-.3h0c.1,0,.3-.1.3-.2a.349.349,0,0,1,.1-.2c0-.2-.1-.3-.1-.4a6.416,6.416,0,0,0-.5-1.1c-.6-1.3-1.6-3.4-2.2-4.5-.1-.2-.4-.9-.7-1.6a7.932,7.932,0,0,0-.4-.9,1.628,1.628,0,0,0-.3-.6h0a1.381,1.381,0,0,0-.4-.3,8.666,8.666,0,0,1,.2-1v-.2h0a.367.367,0,0,0-.1-.3l-.1-.1a7.609,7.609,0,0,1,1.3-2,5.792,5.792,0,0,1,1.4-1.2,6.576,6.576,0,0,0,1.8,2.3c.1.1.2.3.4.5l.3.3.1.1h0a2.9,2.9,0,0,0,.8,1l.1.1h0a2.146,2.146,0,0,0,.7.4,1.268,1.268,0,0,0,.6.1.735.735,0,0,0,.6-.2h0a3.039,3.039,0,0,0,.7-.5,14.054,14.054,0,0,0,1.8-1.7,2.073,2.073,0,0,0,.6-.2,4.621,4.621,0,0,0,.7-.7q.15-.3.3-.3h0a4.66,4.66,0,0,0,1.4-1.4,2.182,2.182,0,0,1,.4-.5h0a1.528,1.528,0,0,0,.4-1C264,162.4,263.8,162.2,263.8,161.8Z" transform="translate(-233.9 -151.1)" fill="#fff"/>
        <path id="Path_48" data-name="Path 48" d="M250.5,181.9h0a2.252,2.252,0,0,0,.1-.7s-1-.8-1.6-1.4h-1a21.213,21.213,0,0,1-2.2-2.6c-.3-.5-.9-1.4-.9-1.4s-.5.2-1.2,1.6c-.2.3-1.2,2.2-1.2,2.2a7.358,7.358,0,0,1-1.6,0,6.078,6.078,0,0,1-1,1.4c.1,0,.1,0,.1.1h.1a.349.349,0,0,0,.2.1.1.1,0,0,1,.1.1l.2.1a3.592,3.592,0,0,0,.7-1h.2a3.42,3.42,0,0,0,1.1-.1c.1,0,.1-.1.2-.1l.1-.1c.1-.1,1.1-2,1.3-2.3.2-.4.4-.6.5-.8.2.4.5.8.6,1a11.606,11.606,0,0,0,2.1,2.4.52.52,0,0,0,.4.2h.7l1.2,1h0a2.073,2.073,0,0,1-.2.6h.1l.2-.1.7-.2Z" transform="translate(-233.9 -151.1)" fill="#fff"/>
      </g>
    </g>
  </g>
</svg>
