<svg xmlns="http://www.w3.org/2000/svg" width="177" height="129" viewBox="0 0 177 129">
  <g id="cl-13" transform="translate(-956 -214)">
    <rect id="Rectangle_60" data-name="Rectangle 60" width="177" height="129" transform="translate(956 214)" fill="#ffffff" fill-opacity="0"/>
    <g id="Group_63" data-name="Group 63" transform="translate(999 254)">
      <g id="Group_60" data-name="Group 60" transform="translate(86.3 23.5)">
        <g id="Group_59" data-name="Group 59">
          <path id="Path_127" data-name="Path 127" d="M688.2,158.9h-.8l-.5,2.2h-.3l.5-2.2h-.8l.1-.3h2Z" transform="translate(-686.3 -158.6)" fill="#a92040"/>
          <path id="Path_128" data-name="Path 128" d="M688.5,158.6h.5l.3,2.1h0l1.2-2.1h.5l-.5,2.5h-.3l.5-2.2h0l-1.3,2.2h-.3l-.3-2.2h0l-.4,2.2H688Z" transform="translate(-686.3 -158.6)" fill="#a92040"/>
        </g>
      </g>
      <g id="Group_62" data-name="Group 62">
        <g id="Group_61" data-name="Group 61">
          <path id="Path_129" data-name="Path 129" d="M608.9,139.4c1.3-2.4,4.3-4.3,6.6-4.3h16.7L621,156.3H600Z" transform="translate(-600 -135.1)" fill="#231f20" fill-rule="evenodd"/>
          <path id="Path_130" data-name="Path 130" d="M643.1,145.7a6.025,6.025,0,0,1,4.7-3.1h11.4l-5.5,10.6a6.025,6.025,0,0,1-4.7,3.1H637.6Z" transform="translate(-600 -135.1)" fill="#231f20" fill-rule="evenodd"/>
          <path id="Path_131" data-name="Path 131" d="M662.3,136.8a3.2,3.2,0,0,1,2.5-1.6h6l-3.2,6a3.2,3.2,0,0,1-2.5,1.6h-6Z" transform="translate(-600 -135.1)" fill="#231f20" fill-rule="evenodd"/>
          <path id="Path_132" data-name="Path 132" d="M621.1,156.3h16.5l-8.8,16.5H612.2Z" transform="translate(-600 -135.1)" fill="#231f20" fill-rule="evenodd"/>
          <path id="Path_133" data-name="Path 133" d="M628.8,172.8h11.6l-5.3,9.9a4.507,4.507,0,0,1-3.4,2.2h-9.4Z" transform="translate(-600 -135.1)" fill="#231f20" fill-rule="evenodd"/>
        </g>
        <path id="Path_134" data-name="Path 134" d="M660.2,161.6l-3.2,6a.46.46,0,0,0,.4.7,1.978,1.978,0,0,0,1-.2l-1.3,2.4a4.253,4.253,0,0,1-1.1.2c-1.9,0-2.8-1.3-1.9-2.8l5.3-10a2.219,2.219,0,0,1,1.8-1.2h1.6l-1.3,2.4h1.6l-1.4,2.6Zm-16.1.4v.1l-1.3,2.5-2.5,4.6a3.178,3.178,0,0,1-1,1,1.345,1.345,0,0,1-.8.2h-1.6l3.1-5.8,1.4-2.6v-.1c.1-.3,0-.6-.4-.6a1.356,1.356,0,0,0-1.1.7l-1.4,2.6-2.5,4.6a2.368,2.368,0,0,1-1.8,1.2h-1.6l4.5-8.4c1-2,2.1-3.3,5.3-3.3h4.2c1.6,0,3,.9,1.7,3.3l-3.8,7.2a2.368,2.368,0,0,1-1.8,1.2h-1.6l3.1-5.8,1.4-2.6c.2-.4.1-.7-.3-.7A1.387,1.387,0,0,0,644.1,162Zm33.1-.5-1,1.9h-2.7l.8-1.5c.2-.4.1-.7-.3-.7a1.356,1.356,0,0,0-1.1.7l-2.7,5.1-.2.5c-.2.4-.1.7.3.7s.9-.3,1.3-1.1l.4-.7h-.7l1.1-2h3.4l-1.9,3.5h0a5.94,5.94,0,0,1-4.9,2.9c-1.9,0-2.7-1.3-1.9-2.8l.5-.9,2.9-5.5a5.94,5.94,0,0,1,4.9-2.9c1.8-.1,2.6,1.2,1.8,2.8ZM662,167.4c-.2.4-.1.7.3.7a1.356,1.356,0,0,0,1.1-.7l3-5.5c.2-.4.1-.7-.3-.7a1.356,1.356,0,0,0-1.1.7Zm7.3-5.9-3.3,6.2h0a5.94,5.94,0,0,1-4.9,2.9c-1.9,0-2.7-1.3-1.9-2.8l3.4-6.3a5.94,5.94,0,0,1,4.9-2.9c1.8,0,2.7,1.3,1.8,2.9Zm-20,5.9c-.2.4-.1.7.3.7a1.356,1.356,0,0,0,1.1-.7l3-5.5c.2-.4.1-.7-.3-.7a1.356,1.356,0,0,0-1.1.7Zm7.1-5.9-3.3,6.2h0a5.94,5.94,0,0,1-4.9,2.9c-1.9,0-2.7-1.3-1.9-2.8l3.4-6.3a5.94,5.94,0,0,1,4.9-2.9c1.8,0,2.7,1.3,1.8,2.9Zm24.4.4-.1.2-1.2,2.2h.5a2.016,2.016,0,0,0,1.5-.9l.8-1.5c.2-.4.1-.7-.3-.7A1.387,1.387,0,0,0,680.8,161.9Zm-2.7,4.9-1.3,2.4a2.219,2.219,0,0,1-1.8,1.2h-1.6l3.4-6.4,1-1.9c1.5-2.9,3.2-3.5,5.3-3.5,2.4,0,2.7,1.6,1.6,3.5l-.1.1-.9,1.7-.1.1a6.114,6.114,0,0,1-5,2.9A1.339,1.339,0,0,1,678.1,166.8Z" transform="translate(-600 -135.1)" fill="#a92040"/>
      </g>
    </g>
  </g>
</svg>
