<svg xmlns="http://www.w3.org/2000/svg" width="177" height="129" viewBox="0 0 177 129">
  <g id="cl-15" transform="translate(-1434 -214)">
    <rect id="Rectangle_53" data-name="Rectangle 53" width="177" height="129" transform="translate(1434 214)" fill="#ffffff" fill-opacity="0"/>
    <path id="path5674_1_" d="M1020.3,168.3c-2.3-4.6-4.5-9.3-6.7-13.9a2.388,2.388,0,0,0-2.2-1.5,2.34,2.34,0,0,0-2.2,1.6c-2.2,4.6-4.4,9.2-6.7,13.8a6.89,6.89,0,0,0-.3.8,2.293,2.293,0,0,0,1.7,2.8,2.427,2.427,0,0,0,2.4-.8,4.052,4.052,0,0,0,.5-.9l4.2-8.7c.1-.2.2-.5.4-.9.2.3.2.5.3.6,1.2,2.4,2.3,4.8,3.5,7.2.4.8.7,1.6,1.1,2.3a2.292,2.292,0,0,0,3.2.8,2.209,2.209,0,0,0,1-1.3,2.539,2.539,0,0,0-.2-1.9Zm-14.8-12.9a2.245,2.245,0,0,0-1.5-2.3,5.16,5.16,0,0,0-1.1-.2H990.4a2.187,2.187,0,0,0-2,2.2,2.226,2.226,0,0,0,1.2,2.2,3.553,3.553,0,0,0,1,.2h3.2s-5.4,11-5.5,11.3a2.565,2.565,0,0,0,.7,2.6,2.436,2.436,0,0,0,2.6.3,3.325,3.325,0,0,0,1.2-1.4c1.1-2.4,2.3-4.8,3.5-7.2.8-1.7,2.7-5.6,2.7-5.6h4.7a2.358,2.358,0,0,0,1.8-2.1ZM983,152.9a2.361,2.361,0,0,0-1.7,1.5c-1.4,3-2.9,5.9-4.3,8.9a5.732,5.732,0,0,1-.4.7,7.255,7.255,0,0,0-.5-.9l-4.2-8.6a4.875,4.875,0,0,1-.3-.7,2.285,2.285,0,0,0-3.2-.7,2.337,2.337,0,0,0-.7.7,4.875,4.875,0,0,0-.3.7c-1.4,2.9-2.8,5.7-4.2,8.6a9,9,0,0,1-.5.9,7.255,7.255,0,0,0-.5-.9l-4.1-8.5a1.611,1.611,0,0,0-.4-.7,2.3,2.3,0,0,0-3.2-.7,2.331,2.331,0,0,0-.8,3c2.3,4.8,4.6,9.5,6.9,14.3a2.17,2.17,0,0,0,2.1,1.3,2.26,2.26,0,0,0,2.1-1.4c.1-.1,4.6-9.5,4.8-9.9.5,1,3.6,7.4,4.7,9.8a2.248,2.248,0,0,0,2.4,1.5,2.511,2.511,0,0,0,2.1-1.6c2.2-4.6,4.4-9.1,6.6-13.7a3.553,3.553,0,0,0,.4-.9,2.3,2.3,0,0,0-1.9-2.7Zm-33.3,9A22.166,22.166,0,0,0,947,152a24.257,24.257,0,0,0-7.1-8.2l-.1-.1a8.273,8.273,0,0,1,.9-2.8c.8-1.2,2.2-2.7,2.3-3.3a3.408,3.408,0,0,0-.4-1.6c-.2-.7-.6-.8-.9-.6a4.74,4.74,0,0,0-1,1,8.173,8.173,0,0,1-.8.9v-.5c-.1-.7-.5-.7-.7-.4a5.085,5.085,0,0,1-.4,1.4,3.233,3.233,0,0,0-.3,1.7,5.073,5.073,0,0,1-.4,2.4l-.3.6a36.9,36.9,0,0,0-2.2,6.1c-.1.9,0,1.4-.1,1.9a69.99,69.99,0,0,1-3.1,6.4,7.188,7.188,0,0,0-1.2,4.3v.4a.9.9,0,0,1-.9.9c-1,0-1.3-1.2-1.1-2.2.2-.6.6-1.2.2-1.7s-1.1-.3-2,0a2.62,2.62,0,0,1-2.7-.2c-.8-.7-1.5-1.5-4.1-.7-.4.1-.1-1.6,1.1-2-.2,0-.4-.1-.6-.1a4.721,4.721,0,0,0-2.5,1.1,4.324,4.324,0,0,0-1.3,2.6,5.178,5.178,0,0,0,.9,3.8,3.983,3.983,0,0,0-1.7,1.7,1.985,1.985,0,0,1-1.6,1.1c.3.6,1.1.3,1.6.4a3,3,0,0,0-1,3.3,7.545,7.545,0,0,1,2.6-2.1c.3-.1,1.1-.5,1.5-.6a2.6,2.6,0,0,0,1.8-2.2,8.844,8.844,0,0,0,2.3,0c.6-.1.9.4,1.6.8-.3.2-1.9.8-2.9,1.3a8.59,8.59,0,0,0-4,4.2,19.992,19.992,0,0,1-1.9,2.2q-1.35,1.5-2.7,3.3h0c-.9-.9-6.2-4.4-8.4-6.6l-.5-.5a1.185,1.185,0,0,1-.1-.8v-.4a2.111,2.111,0,0,0-.6-1.6c-.2-.1-.4-.2-.4-.3l2.4-3.4c.9-1.3,3.1-2.3,4.7-2.9a12.445,12.445,0,0,0,4.1-1.7c2.8-2,5.3-5.6,7.8-7.5a14.784,14.784,0,0,1,12.2-2.5,17.635,17.635,0,0,1,1.3-3.6,26.783,26.783,0,0,1,1.2-2.4,23.18,23.18,0,0,0-8.9-2.8c-9-.8-17.1,3.2-21.3,9.4a10.9,10.9,0,0,0-1.7,6.3c.1,1.2.1,5.1-.9,6.6-.4.5-1.6,2.4-2.4,3.5-.1,0-.2-.1-.3-.1-.6-.1-1,.1-1.3.8l-.5,1.1c0,.1-.1.2-.1.3a1.486,1.486,0,0,0,.2.9,2.545,2.545,0,0,0,1.2,1.1.749.749,0,0,0,.5.1,2.714,2.714,0,0,0,1,.9,9.334,9.334,0,0,1,1.3,1.5,47.994,47.994,0,0,0,5.4,6.5c1,1,2.7,2.3,3.1,2.8l.1.1a1.136,1.136,0,0,0,.8.3,1.613,1.613,0,0,0,.9-.3,25.155,25.155,0,0,0,7.3-7.4,6.312,6.312,0,0,0-.9-.4h.1a2.152,2.152,0,0,1,.8,0h0a22.159,22.159,0,0,1,4.6,1.1,1.765,1.765,0,0,1,.9.8,15.912,15.912,0,0,1,1.3,2.2,1.6,1.6,0,0,1,.1,1.5c-.2.6-2.4,5.1-3.1,7a3.551,3.551,0,0,1-.4.9h0a23.3,23.3,0,0,0,13-3.5,24.17,24.17,0,0,0,8.6-9,25.123,25.123,0,0,0,2.7-8.7,26.015,26.015,0,0,0,.1-3.9Zm-41.6-13.1c2.3-3.3,5.9-4.1,8.3-2.4s2.9,5.3.5,8.6c-2.3,3.3-6.2,4.6-8.6,2.9a3.907,3.907,0,0,1-1.4-1.7C906,154.2,906.4,151.3,908.1,148.8Zm-1.6,8.4a4.8,4.8,0,0,0,3,2.2,9.184,9.184,0,0,0-3.5,1.9A19.947,19.947,0,0,0,906.5,157.2ZM945,169.9l-.5,1.5a20.894,20.894,0,0,1-4.8,8.4c-1.8-2.7.6-8.1-1.7-12.1-1.6-2.8-4.1-4.4-8.4-3.5-1.9.2-2.1-.2-2.5-.5a6.013,6.013,0,0,0-2.2-1.7c.2-.1.4-.1.6-.2a5.222,5.222,0,0,1,2.1-.4,1.421,1.421,0,0,1,.6.2l.2.2.4.4a2.155,2.155,0,0,0,1.7.5,8.374,8.374,0,0,1,3.5.1,5.717,5.717,0,0,1,3,2.1,9.981,9.981,0,0,1-.7-4.8c.4-1.6.8-3.3,1.2-4.9a22.01,22.01,0,0,0,.7-3.7c0-.2.3-.7.4-1.2a2.354,2.354,0,0,0,.2-.8c.7.4,1.3.8,1.9,1.2a13.629,13.629,0,0,1,2.4,2.4,13.247,13.247,0,0,1,2.1,4.3h0c0,.1,0,.1.1.2a20.208,20.208,0,0,1,.6,3.4,1.7,1.7,0,0,0,.1.7h0a27.93,27.93,0,0,1-1,8.2Z" transform="translate(561.9 117.691)" fill="#782cfa"/>
  </g>
</svg>
