<svg xmlns="http://www.w3.org/2000/svg" width="177" height="129" viewBox="0 0 177 129">
  <g id="cl-2" transform="translate(-275 -59)">
    <rect id="Rectangle_47" data-name="Rectangle 47" width="177" height="129" transform="translate(275 59)" fill="#ffffff" fill-opacity="0"/>
    <g id="g7_1_" transform="translate(330 90)">
      <path id="path9_1_" d="M191.5,79.2c0,1.3-.6,1.9-2.2,1.9h-3.7V74h3.6c1.7,0,2.2.7,2.2,1.9,0,.9-.3,1.3-1.3,1.6l-.2.1h.2c1,.2,1.4.6,1.4,1.6ZM187.3,77h1.5a.8.8,0,0,0,.9-.9c0-.6-.2-.9-.9-.9h-1.5V77Zm2.4,2.1c0-.7-.3-.9-.9-.9h-1.6V80h1.6q1.05,0,.9-.9Zm2.9-.2V74h1.8v4.8c0,.8.4,1.1,1.3,1.1,1,0,1.3-.3,1.3-1.1V74h1.8v4.8c0,1.7-1,2.4-3.1,2.4-2.1.1-3.1-.7-3.1-2.3ZM207.2,74v7.1H205l-3-5.2v5.2h-1.7V74h2.2l3,5.2V74Zm1.5,0h3.2c2.5,0,3.2,1,3.2,3.6,0,2.5-.7,3.6-3.2,3.6h-3.2V74Zm3.1,5.8c1,0,1.4-.5,1.4-2.2s-.3-2.2-1.4-2.2h-1.4v4.4Zm4.5-5.8h5v1.4h-3.2v1.5h2.7v1.3h-2.7v1.6h3.3v1.4h-5.1Zm6.1,6.9V79.5a6.722,6.722,0,0,0,2.4.4c.8,0,1.2-.2,1.2-.8,0-.5-.2-.6-.8-.8l-1.2-.2a1.739,1.739,0,0,1-1.6-2c0-1.6.9-2.2,2.8-2.2a6.2,6.2,0,0,1,2.3.4v1.4a7.8,7.8,0,0,0-2.2-.4c-.9,0-1.2.2-1.2.8,0,.5.2.6.8.7l1.2.2c1.3.3,1.7.7,1.7,2,0,1.5-.9,2.2-2.9,2.2a5.242,5.242,0,0,1-2.5-.3Zm6.5-6.9h1.8v5.8h3.1v1.4H229l-.1-7.2Zm6,0h1.8v7.1h-1.8Zm9.2,3v3.9a6.9,6.9,0,0,1-2.5.4c-2.5,0-3.6-1.1-3.6-3.7s1.2-3.7,3.6-3.7a6.722,6.722,0,0,1,2.4.4v1.4a8.506,8.506,0,0,0-2.2-.4c-1.5,0-2,.6-2,2.3,0,1.8.5,2.3,1.9,2.3a2.769,2.769,0,0,0,.9-.1V78.2h-1.3V77Zm5.8,2.7h-2.8l-.5,1.5h-1.8l2.5-7.1h2.3l2.5,7.1h-1.8Zm-1.4-4.5-1,3.2h2.1Z" transform="translate(-185.6 -14.8)"/>
      <rect id="rect11_1_" width="66.4" height="53.1" transform="translate(0.1)" fill="#f10d20"/>
      <path id="path13_1_" d="M240.4,42.8c0,.1-.1.2-.3.4l-.1.1v.1c0,.1,0,.2-.1.2l-.2.1a.139.139,0,0,1-.2,0v-.1l-.3.1v.1c0,.1,0,.2-.1.2l-.2.1h-.2V44c-.9.4-1.8.8-2.8,1.3l.1.1c0,.1,0,.2-.1.2l-.2.1h-.2l-.1-.1-.3.2.1.1c0,.1,0,.2-.1.2l-.2.1h-.2l-.1-.1a.869.869,0,0,1-1.3-.4,5.769,5.769,0,0,1-.3-1.4c0-.1-.2-.2-.3-.2-4.3-.8-5.8.1-8.6-.6-.9-.2-1.3-1-2.4-1-2.3-.1-3,0-5.6-.1l-.1.4h-8.9l1.4.7.4,3.9a4.331,4.331,0,0,1-.5.1,23,23,0,0,1,.2,2.8c0,.9.1,1.8.1,2.3a2.279,2.279,0,0,1-.3,1.1,2.336,2.336,0,0,1-.7.7,3.775,3.775,0,0,1-.8.5c-.4.2-.9.5-1.1.6,0,.1.1.2.1.3-5.4,2.6-12.1,3.5-14.3,7.7-.3.5-1.1.2-1.2-.3v-.8h-.1c-.1,0-.1-.1-.1-.2V62a.349.349,0,0,1,.1-.2h.1c0-.2.1-.5.1-.7h-.1c-.1,0-.1-.1,0-.2l.1-.2a.215.215,0,0,1,.2-.2h.1c.4-.9,1.1-1.3,1.5-2.2h-.1c-.1,0-.1-.1-.1-.2l.1-.2c0-.1.1-.2.2-.1h.1c.1-.1.1-.3.2-.4h-.1c-.1,0-.1-.1,0-.2l.1-.2a.31.31,0,0,1,.2-.1h0l.1-.1a.91.91,0,0,1,1.2,0,2.382,2.382,0,0,0,3-.2c2.1-1.9,4.6-4.5,6.5-4.6a23.974,23.974,0,0,1-1.5-4.2l-.6-.1a30,30,0,0,1-1.3-6.4,13.165,13.165,0,0,1,0-3.5c-.1,0-.4.2-.5.2-.3-.8.8-7.9,1.9-9.9l1.7-.7c-.2,0-1.4-.1-4.6-.3-1.8,1.6-3.9,3.3-4.9,4.2-.2.1-.5,1.1-.5,1.1a6.217,6.217,0,0,1-1,.8c-.6.5-2.2.8-2.6.3a.187.187,0,0,1,0-.3c.2-.3,1.2-.7,1.5-1.3a3.316,3.316,0,0,1-1.5.5c-.2,0-.3-.5,0-.6.7-.3,1.2-.4,1.6-1a1.65,1.65,0,0,1,1.5-.9s3-3.9,4.7-5.7a1.694,1.694,0,0,1,1.4-.3l.2-.6s6-.7,8.8.2c-.1-1.7.7-3.9,3.3-3.9,1.4,0,3.4,1.2,3.6,2.7.1.5-.2.7-.3,1.3a14.047,14.047,0,0,0,0,2.1c-.1.2-.4.2-.6.6a4.672,4.672,0,0,0-.5,1l-.4.8-1.9-.1a30.5,30.5,0,0,0-2.6,7.5h0c1.5.1,8.1,1.1,8.1,1.1l.2.5a18.128,18.128,0,0,1,5.1,1.4,8.633,8.633,0,0,1,2.6.3c.1,0,.2-.2.3-.2,3,.9,5.5,2.5,8.3,3.2,0,0,1.3.3,1.8.4.8.1,1.5.2,2.3.3a16.233,16.233,0,0,0,2.1.1c.3-.5.8-.5,1,.2m4.3-9.1a3.7,3.7,0,1,0,3.7,3.7h0a3.691,3.691,0,0,0-3.7-3.7Z" transform="translate(-185.6 -14.8)" fill="#fff"/>
    </g>
  </g>
</svg>
