<svg xmlns="http://www.w3.org/2000/svg" xmlns:xlink="http://www.w3.org/1999/xlink" width="177" height="129" viewBox="0 0 177 129" >
  <defs>
    <linearGradient id="linear-gradient" x1="1.083" y1="2.091" x2="0.003" y2="2.778" gradientUnits="objectBoundingBox">
      <stop offset="0" stop-color="#042f70"/>
      <stop offset="0.471" stop-color="#10529a"/>
      <stop offset="1" stop-color="#1f7dcd"/>
    </linearGradient>
    <linearGradient id="linear-gradient-2" x1="962.13" y1="2.089" x2="961.046" y2="2.778" xlink:href="#linear-gradient"/>
    <linearGradient id="linear-gradient-3" x1="1.93" y1="3.081" x2="0.262" y2="2.132" xlink:href="#linear-gradient"/>
    <linearGradient id="linear-gradient-4" x1="-0.165" y1="3.26" x2="2.364" y2="2.626" xlink:href="#linear-gradient"/>
    <linearGradient id="linear-gradient-5" x1="1.833" y1="2.83" x2="-0.735" y2="3.198" xlink:href="#linear-gradient"/>
    <linearGradient id="linear-gradient-6" x1="-0.591" y1="2.196" x2="1.585" y2="2.46" xlink:href="#linear-gradient"/>
  </defs>
  <g id="cl-3" transform="translate(-486 -59)">
    <rect id="Rectangle_48" data-name="Rectangle 48" width="177" height="129" transform="translate(486 59)" fill="#ffffff" fill-opacity="0"/>
    <g id="Group_26" data-name="Group 26" transform="translate(553 88)">
      <g id="Group_21" data-name="Group 21">
        <path id="Path_51" data-name="Path 51" d="M328.5,4.5H305a9.389,9.389,0,0,0-9.4,9.4V66.5a9.389,9.389,0,0,0,9.4,9.4h23.5a9.389,9.389,0,0,0,9.4-9.4V13.9A9.389,9.389,0,0,0,328.5,4.5Z" transform="translate(-295.6 -4.5)" fill="#fff"/>
        <g id="Group_19" data-name="Group 19" transform="translate(0 55.2)">
          <path id="Path_52" data-name="Path 52" d="M295.6,59.7v6.8a9.389,9.389,0,0,0,9.4,9.4h23.5a9.389,9.389,0,0,0,9.4-9.4V59.7Z" transform="translate(-295.6 -59.7)" fill="#08488e"/>
        </g>
        <g id="Group_20" data-name="Group 20" transform="translate(4.9 58.4)">
          <path id="Path_53" data-name="Path 53" d="M330.9,66.6h0c-.4.9-.7,1.8-1.1,2.7-.1.3-.2.5-.3.8,0,.1-.1.2-.3.2h-1.3c-.1,0-.2-.1-.3-.2a25.5,25.5,0,0,0-1.3-2.9c-.1-.2-.1-.3-.2-.5v4.7c0,.2,0,.2-.2.3h-1.5c-.2,0-.2-.1-.2-.2v-8c0-.2,0-.2.2-.2H326a.6.6,0,0,1,.4.1c.1,0,.1.1.2.2.4,1,.9,2.1,1.3,3.1a13.358,13.358,0,0,1,.7,1.8v-.1c.3-.8.7-1.7,1-2.5s.7-1.6,1-2.4c.1-.2.2-.2.3-.2h1.8c.1,0,.1.1.1.2v8.1c0,.2,0,.2-.2.2h-1.5c-.2,0-.2-.1-.2-.2v-5Z" transform="translate(-300.5 -62.9)" fill="#cb2e3b"/>
          <path id="Path_54" data-name="Path 54" d="M315.3,64.9h-1.9c-.1,0-.2,0-.2-.2V63.1c0-.1,0-.2.2-.2h5.9c.1,0,.2,0,.2.2v1.5c0,.2-.1.2-.2.2h-1.9v6.4c0,.2,0,.2-.2.3h-1.5a.215.215,0,0,1-.2-.2V64.9c-.2.1-.2,0-.2,0Z" transform="translate(-300.5 -62.9)" fill="#139049"/>
          <path id="Path_55" data-name="Path 55" d="M305.7,63h4.6a.472.472,0,0,1,.5.5v.9a.43.43,0,0,1-.4.4h-9.3a.55.55,0,0,1-.5-.3c0-.1-.1-.1-.1-.2v-.9a.472.472,0,0,1,.5-.5c1.6.1,3.2.1,4.7.1Z" transform="translate(-300.5 -62.9)" fill="#e70c30"/>
          <path id="Path_56" data-name="Path 56" d="M320.7,67.3v-4c0-.2,0-.2.2-.2h1.6c.1,0,.1.1.1.2v8.1c0,.2,0,.2-.2.3h-1.5a.215.215,0,0,1-.2-.2V67.3Z" transform="translate(-300.5 -62.9)" fill="#f0f1f0"/>
          <path id="Path_57" data-name="Path 57" d="M306.8,66.4h3.6c.3,0,.4.1.5.4v1.1a.43.43,0,0,1-.4.4h-3.7V66.4Z" transform="translate(-300.5 -62.9)" fill="#e70c30"/>
          <path id="Path_58" data-name="Path 58" d="M306.8,71.6V69.8h3.6a.462.462,0,0,1,.5.3v1a.43.43,0,0,1-.4.4c-1.3.1-2.5.1-3.7.1Z" transform="translate(-300.5 -62.9)" fill="#e70c30"/>
          <path id="Path_59" data-name="Path 59" d="M304.7,69.8v1.8h-3.6a.472.472,0,0,1-.5-.5v-.9a.536.536,0,0,1,.5-.5c1.2.1,2.4.1,3.6.1Z" transform="translate(-300.5 -62.9)" fill="#e70c30"/>
          <path id="Path_60" data-name="Path 60" d="M304.7,68.2h-3.6a.472.472,0,0,1-.5-.5v-.8a.536.536,0,0,1,.5-.5h3.7a10.868,10.868,0,0,0-.1,1.8Z" transform="translate(-300.5 -62.9)" fill="#e70c30"/>
        </g>
      </g>
      <g id="Group_23" data-name="Group 23" transform="translate(5.056 46.1)">
        <g id="Group_22" data-name="Group 22">
          <path id="Path_61" data-name="Path 61" d="M301.7,56.8a4.372,4.372,0,0,1-1-.6.139.139,0,0,1,0-.2l.7-.8s.1-.1.1,0a2.66,2.66,0,0,0,1.6.6c.6,0,1-.3,1-.7s-.3-.6-1-.7h-.3c-1.3-.2-2-.8-2-1.9a1.816,1.816,0,0,1,.6-1.4,2.2,2.2,0,0,1,1.6-.5,2.817,2.817,0,0,1,2.1.7c.1,0,.1.1,0,.1l-.6.8s-.1.1-.1,0a2.976,2.976,0,0,0-1.5-.5.713.713,0,0,0-.8.7c0,.4.3.6,1,.7h.3c1.3.2,2,.8,2,1.9,0,1.2-.9,2-2.5,2A7.383,7.383,0,0,1,301.7,56.8Z" transform="translate(-300.656 -50.6)" fill="#042f70"/>
          <path id="Path_62" data-name="Path 62" d="M306.5,50.7h0l4.1-.1c.1,0,.1,0,.1.1v1c0,.1,0,.1-.1.1h-2.7a.1.1,0,0,0-.1.1v1.2a.1.1,0,0,0,.1.1h2.3c.1,0,.1,0,.1.1v1c0,.1,0,.1-.1.1h-2.3a.1.1,0,0,0-.1.1v1.3a.1.1,0,0,0,.1.1h2.7c.1,0,.1,0,.1.1v1c0,.1,0,.1-.1.1h-4c-.1,0-.1,0-.1-.1Z" transform="translate(-300.656 -50.6)" fill="#042f70"/>
          <path id="Path_63" data-name="Path 63" d="M315.2,56.9h0L314,54.5h-.8a.1.1,0,0,0-.1.1v2.2c0,.1,0,.1-.1.1h-1.2c-.1,0-.1,0-.1-.1V50.7c0-.1,0-.1.1-.1h2.5a2.25,2.25,0,0,1,1.5.5,1.816,1.816,0,0,1,.6,1.4,1.751,1.751,0,0,1-1.1,1.7l1.2,2.5a.1.1,0,0,1-.1.1l-1.2.1Zm-.9-3.6a.817.817,0,0,0,.9-.8c0-.5-.3-.8-.9-.8h-1.1a.1.1,0,0,0-.1.1v1.5a.1.1,0,0,0,.1.1l1.1-.1Z" transform="translate(-300.656 -50.6)" fill="#042f70"/>
          <path id="Path_64" data-name="Path 64" d="M317.6,50.7h0l1.3-.1c.1,0,.1,0,.1.1v6.1c0,.1,0,.1-.1.1h-1.2c-.1,0-.1,0-.1-.1V50.7Z" transform="translate(-300.656 -50.6)" fill="#042f70"/>
          <path id="Path_65" data-name="Path 65" d="M320.2,50.7h0l4.1-.1c.1,0,.1,0,.1.1v1c0,.1,0,.1-.1.1h-2.7a.1.1,0,0,0-.1.1v1.2a.1.1,0,0,0,.1.1h2.3c.1,0,.1,0,.1.1v1c0,.1,0,.1-.1.1h-2.3a.1.1,0,0,0-.1.1v1.3a.1.1,0,0,0,.1.1h2.7c.1,0,.1,0,.1.1v1c0,.1,0,.1-.1.1h-4c-.1,0-.1,0-.1-.1Z" transform="translate(-300.656 -50.6)" fill="#042f70"/>
          <path id="Path_66" data-name="Path 66" d="M329.4,50.7c0-.1.1-.1,0,0l1.3-.1c.1,0,.1,0,.1.1l2.1,6.1c0,.1,0,.1-.1.1h-1.2c-.1,0-.1,0-.1-.1l-.4-1.1h-2.2l-.4,1.1a.1.1,0,0,1-.1.1h-1.2c-.1,0-.1,0-.1-.1Zm-.1,3.8h1.5l-.7-2.2h0Z" transform="translate(-300.656 -50.6)" fill="#042f70"/>
        </g>
      </g>
      <g id="Group_25" data-name="Group 25" transform="translate(5.5 4.3)">
        <g id="Group_24" data-name="Group 24" transform="translate(0 12.3)">
          <path id="Path_67" data-name="Path 67" d="M316.7,48.2l-15.6-9.9h9.5Z" transform="translate(-301.1 -21.1)" fill="url(#linear-gradient)"/>
          <path id="Path_68" data-name="Path 68" d="M316.7,48.2l15.6-9.9h-9.5Z" transform="translate(-301.1 -21.1)" fill="url(#linear-gradient-2)"/>
          <path id="Path_69" data-name="Path 69" d="M316.7,38.3v9.9l-6.1-9.9Z" transform="translate(-301.1 -21.1)" fill="url(#linear-gradient-3)"/>
          <path id="Path_70" data-name="Path 70" d="M316.7,21.1V38.3h-6.1Z" transform="translate(-301.1 -21.1)" fill="url(#linear-gradient-4)"/>
          <path id="Path_71" data-name="Path 71" d="M322.8,38.3h-6.1V21.1Z" transform="translate(-301.1 -21.1)" fill="url(#linear-gradient-5)"/>
          <path id="Path_72" data-name="Path 72" d="M322.8,38.3l-6.1,9.9V38.3Z" transform="translate(-301.1 -21.1)" fill="url(#linear-gradient-6)"/>
        </g>
        <path id="Path_73" data-name="Path 73" d="M332.3,38.3,319.9,8.8h-6.4L301.1,38.3h9.5l6.1-17.2,2.8,8h-2.8l-1.6,5h6.2l1.5,4.2Z" transform="translate(-301.1 -8.8)" fill="#178fd3"/>
      </g>
    </g>
  </g>
</svg>
