<svg xmlns="http://www.w3.org/2000/svg" width="177" height="129" viewBox="0 0 177 129">
  <g id="cl-4" transform="translate(-706 -59)">
    <rect id="Rectangle_49" data-name="Rectangle 49" width="177" height="129" transform="translate(706 59)" fill="#ffffff" fill-opacity="0"/>
    <g id="Group_34" data-name="Group 34" transform="translate(770 88)">
      <rect id="Rectangle_10" data-name="Rectangle 10" width="48.5" height="71.2" fill="#0a1d3d"/>
      <g id="Group_33" data-name="Group 33" transform="translate(6.9 9.237)">
        <g id="Group_28" data-name="Group 28" transform="translate(18.3 47.163)">
          <g id="Group_27" data-name="Group 27">
            <path id="Path_74" data-name="Path 74" d="M453.1,61H457v.9h-2.8v1.3h2.7v.9h-2.7v1.4H457v.9h-3.9Zm14.6,5.6c1.2,0,1.9-.6,1.9-1.3,0-.6-.4-1-1.2-1.1l-.9-.2c-.5-.1-.7-.2-.7-.4s.2-.4.7-.4.9.1.9.6h1c-.1-.9-.7-1.4-1.9-1.4-1.1,0-1.8.4-1.8,1.3,0,.6.4,1,1.3,1.2l1,.2c.4.1.5.2.5.3,0,.3-.3.4-.8.4-.6,0-.9-.1-1.1-.6h-1A1.879,1.879,0,0,0,467.7,66.6Zm-2.4-.1h-1.1a.975.975,0,0,1-1.1-1V63.3h-.8v-.9h.8V61.2h1v1.2h1.2v.9h-1.2v1.9c0,.2.2.3.4.3h.8v1Zm-4.4-4.1v.4a2.106,2.106,0,0,0-1.3-.5,2.151,2.151,0,1,0-.1,4.3h.1a2.106,2.106,0,0,0,1.3-.5v.4h1V62.4Zm-1.2,3.3a1.251,1.251,0,1,1,1.2-1.3h0a1.184,1.184,0,0,1-1.2,1.3Z" transform="translate(-453.1 -61)" fill="#20c06a"/>
          </g>
        </g>
        <g id="Group_30" data-name="Group 30" transform="translate(0 38.063)">
          <g id="Group_29" data-name="Group 29">
            <path id="Path_75" data-name="Path 75" d="M441.2,56.1h-2.5V51.9h-1.3v5.3h3.9l-.1-1.1Zm25-4.2L464.3,53l.3,1.1,1.2-.6v3.7h1.3V51.9Zm-22.7,0h-1.3v5.3h1.3ZM458.8,55h2.1V54h-2.1V53h2.5V51.9h-3.9v5.3h3.9V56.1h-2.6l.1-1.1Zm-4.1,0a1.1,1.1,0,0,1-1.2,1.2,1.153,1.153,0,0,1-1.2-1.2V51.9H451v3a2.5,2.5,0,0,0,5,0v-3h-1.3Zm-16.4,9.4a1.394,1.394,0,0,1-1.4,1.5,1.321,1.321,0,0,1-1.3-1.5V61h-.8v3.4a2.076,2.076,0,0,0,2.1,2.2,2.2,2.2,0,0,0,1.5-.6v.5h.8V61h-.8l-.1,3.4Zm3.9-2h0a2.035,2.035,0,0,0-1.5.6V61h-.8v5.5h.8V66a1.974,1.974,0,0,0,1.4.6,2.051,2.051,0,0,0,2.1-2.1A2.094,2.094,0,0,0,442.2,62.4Zm1.2,2.1a1.367,1.367,0,0,1-1.4,1.4h0a1.4,1.4,0,1,1,1.4-1.4Zm5.2,0a2.03,2.03,0,0,0-2-2.1,2.112,2.112,0,0,0-2.1,2.1h0a2.051,2.051,0,0,0,2.1,2.1,1.965,1.965,0,0,0,1.7-.9l-.6-.4a1.425,1.425,0,0,1-1.2.6,1.3,1.3,0,0,1-1.3-1.1h3.3Zm-3.2-.4a1.22,1.22,0,0,1,2.4,0Zm4.5-1.1v-.5h-.8v4h.8V64.2a.923.923,0,0,1,.9-1h.3v-.7h-.3A.957.957,0,0,0,449.9,63Zm-2.2-5.7a2.623,2.623,0,0,0,2.1-.7V54.4l-1.2.2V56a1.884,1.884,0,0,1-.8.2,1.6,1.6,0,0,1-1.7-1.6,1.53,1.53,0,0,1,1.7-1.5,3.808,3.808,0,0,1,1.6.3l.3-1.1a4.642,4.642,0,0,0-2-.4,2.715,2.715,0,1,0,0,5.4Z" transform="translate(-434.8 -51.9)" fill="#fff"/>
          </g>
        </g>
        <g id="Group_32" data-name="Group 32" transform="translate(0.1)">
          <g id="Group_31" data-name="Group 31">
            <path id="Path_76" data-name="Path 76" d="M461.7,18.3,458.1,24a63.7,63.7,0,0,1,4.2,6.9,56.043,56.043,0,0,1-5.4,8.8,84.172,84.172,0,0,1-8.7.1l-3.6,5.8a68.577,68.577,0,0,0,15.7-.1A72.242,72.242,0,0,0,469.4,31,60.594,60.594,0,0,0,461.7,18.3Z" transform="translate(-434.9 -13.837)" fill="#cef936"/>
            <path id="Path_77" data-name="Path 77" d="M442,28.9a56.043,56.043,0,0,1,5.4-8.8,84.173,84.173,0,0,1,8.7-.1l3.6-5.8a75.018,75.018,0,0,0-15.7.1,68.03,68.03,0,0,0-9.1,14.5,61.036,61.036,0,0,0,7.6,12.7l3.6-5.7A62.488,62.488,0,0,1,442,28.9Z" transform="translate(-434.9 -13.837)" fill="#cef936"/>
          </g>
          <path id="Path_78" data-name="Path 78" d="M456.8,29.9a4.7,4.7,0,1,1-4.7-4.7A4.76,4.76,0,0,1,456.8,29.9Z" transform="translate(-434.9 -13.837)" fill="#fff"/>
        </g>
      </g>
    </g>
  </g>
</svg>
