<svg xmlns="http://www.w3.org/2000/svg" width="177" height="129" viewBox="0 0 177 129">
  <g id="cl-5" transform="translate(-956 -59)">
    <rect id="Rectangle_14" data-name="Rectangle 14" width="177" height="129" transform="translate(956 59)" fill="#ffffff" fill-opacity="0"/>
    <g id="Group_130" data-name="Group 130" transform="translate(2.055 -2030.067)">
      <g id="Group_100" data-name="Group 100" transform="translate(421.646 2100.267)">
        <path id="Path_224" data-name="Path 224" d="M608.573,20.6a9.073,9.073,0,1,0,9.073,9.073,9.074,9.074,0,0,0-9.073-9.073" transform="translate(11.761 4.888)" fill="#fff"/>
        <path id="Path_225" data-name="Path 225" d="M592.1,18.582v.271l.135.135,9.615,5.552h.271l.135-.135h0a13.16,13.16,0,0,1,3.656-4.063,14.833,14.833,0,0,1,5.011-2.167h.135c.135-.135.135-.135.135-.271h0L609.163,7.071h0V6.935c-.135-.135-.135-.135-.271-.135h0a24.57,24.57,0,0,0-9.75,4.063,25.4,25.4,0,0,0-7.042,7.719" transform="translate(9.139)" fill="#8f227f"/>
        <path id="Path_226" data-name="Path 226" d="M588.543,36.384c0,.135.135.135.271.135h.135l10.292-3.927h0c.135,0,.135-.135.135-.271v-.135h0a12.005,12.005,0,0,1-.813-5.417,13.974,13.974,0,0,1,1.49-5.282h0v-.135c0-.135,0-.271-.135-.271h0L590.168,15.8h-.135c-.135,0-.271,0-.271.135h0a23.228,23.228,0,0,0-2.844,10.157,21.726,21.726,0,0,0,1.625,10.292" transform="translate(7.28 3.188)" fill="#0a5297"/>
        <path id="Path_227" data-name="Path 227" d="M601.729,48.644c.135,0,.271,0,.271-.135a.133.133,0,0,1,.135-.135l3.25-10.563h0c0-.135,0-.271-.135-.271h-.135a11.122,11.122,0,0,1-4.74-2.708,13.088,13.088,0,0,1-3.25-4.469h0a.133.133,0,0,0-.135-.135c-.135-.135-.271-.135-.271,0h0L586.562,34.56h0a.133.133,0,0,0-.135.135c-.135.135-.135.271,0,.271h0a24.775,24.775,0,0,0,6.094,8.532,27.118,27.118,0,0,0,9.209,5.146" transform="translate(7.094 8.262)" fill="#268bc8"/>
        <path id="Path_228" data-name="Path 228" d="M619.049,46.75c.135,0,.135-.135.135-.271v-.135l-6.094-9.209h0c0-.135-.135-.135-.271-.135h-.135a11.443,11.443,0,0,1-5.146,2.031,15.208,15.208,0,0,1-5.552-.271h-.135a.291.291,0,0,0-.271.271h0L598.6,49.73h0v.135c0,.135.135.135.135.271h0a22.983,22.983,0,0,0,10.563.542,26.877,26.877,0,0,0,9.751-3.927" transform="translate(11.442 10.698)" fill="#149244"/>
        <path id="Path_229" data-name="Path 229" d="M628.392,32.283c0-.135,0-.271-.135-.271h-.135L617.152,31.2h0c-.135,0-.271,0-.271.135v.135h0a15.515,15.515,0,0,1-1.49,5.282,11.8,11.8,0,0,1-3.656,4.063h0l-.135.135v.271h0l6.5,8.938h0l.135.135h.271a26.224,26.224,0,0,0,7.042-7.855,25.479,25.479,0,0,0,2.844-10.157" transform="translate(16.047 8.643)" fill="#fae73d"/>
        <path id="Path_230" data-name="Path 230" d="M623.117,16.327c-.135-.135-.271-.135-.271,0a.133.133,0,0,0-.135.135l-7.584,7.99h0c-.135.135-.135.271,0,.271v.135h0a11.592,11.592,0,0,1,3.115,4.469,15.235,15.235,0,0,1,.948,5.417h0v.135c0,.135.135.135.271.135h0l11.1.542h.135c.135,0,.135-.135.135-.271h0a25.648,25.648,0,0,0-1.76-10.428,27.591,27.591,0,0,0-5.959-8.532" transform="translate(17.26 3.339)" fill="#eb8324"/>
        <path id="Path_231" data-name="Path 231" d="M606.771,9.081c-.135,0-.135.135-.271.271v.135l1.625,10.969h0a.291.291,0,0,0,.271.271h.135a14.625,14.625,0,0,1,5.417.271,12.282,12.282,0,0,1,4.875,2.708h.135c.135,0,.271,0,.271-.135h0l7.177-8.4h0V15.04c0-.135,0-.271-.135-.271h0a22.608,22.608,0,0,0-9.209-5.011,22.172,22.172,0,0,0-10.292-.677" transform="translate(14.24 0.698)" fill="#dd1324"/>
        <path id="Path_232" data-name="Path 232" d="M608.609,20.5a9.209,9.209,0,1,0,9.209,9.209,9.4,9.4,0,0,0-9.209-9.209m6.636,14.355c.135-.406.135-.813.271-1.083l-.542.542a8.217,8.217,0,0,1-1.9.948l-1.76-1.9h0l1.219,2.3a5.42,5.42,0,0,1-1.49,1.625c-.271.135-.406.271-.677.406.271,0,.813.135,1.083.135a10.549,10.549,0,0,1-2.844.542,7.072,7.072,0,0,1-2.844-.542c.406,0,.813-.135,1.219-.135-.271-.135-.406-.271-.677-.406a5.614,5.614,0,0,1-1.49-1.625l1.219-2.3h0l-1.76,1.9a3.611,3.611,0,0,1-1.9-.948,1.058,1.058,0,0,1-.542-.542,3.187,3.187,0,0,0,.271,1.083,8.742,8.742,0,0,1-1.76-5.146v-.271a2.721,2.721,0,0,0,.542,1.083c0-.271.135-.542.135-.813a6.335,6.335,0,0,1,1.083-1.9l2.573.542h0l-2.3-1.083a4.171,4.171,0,0,1,.271-2.167c.135-.271.135-.542.271-.677a4.751,4.751,0,0,0-1.083.677,8.161,8.161,0,0,1,4.74-3.386,5.892,5.892,0,0,0-.948.813h.813a5.614,5.614,0,0,1,2.167.406l.271,2.573h0l.271-2.573a5.614,5.614,0,0,1,2.167-.406h.813c-.271-.271-.542-.677-.948-.813a8.607,8.607,0,0,1,4.74,3.386,7.562,7.562,0,0,0-1.083-.677c.135.271.271.406.271.677a5.963,5.963,0,0,1,.271,2.167l-2.3,1.083h0l2.573-.542a6.336,6.336,0,0,1,1.083,1.9,1.719,1.719,0,0,1,.135.813,8.041,8.041,0,0,0,.542-1.083v.271a13.437,13.437,0,0,1-2.167,5.146" transform="translate(11.725 4.853)" fill="#1d1e1c"/>
        <path id="Path_233" data-name="Path 233" d="M603.5,27.108l1.354,4.334h4.6l1.354-4.334L607.156,24.4Z" transform="translate(13.178 6.235)" fill="#1d1e1c"/>
        <path id="Path_234" data-name="Path 234" d="M586.6,51.8V63.988h7.042V61.28h-3.927V51.8Z" transform="translate(7.191 15.941)"/>
        <path id="Path_235" data-name="Path 235" d="M597.481,56.244a2.283,2.283,0,0,0-2.3,2.3,2.212,2.212,0,0,0,2.167,2.438,2.346,2.346,0,0,0,2.438-2.438,2.2,2.2,0,0,0-2.3-2.3m-5.281,2.3a4.98,4.98,0,0,1,4.74-5.146,3.9,3.9,0,0,1,2.844,1.219v-.948h2.979v9.886h-2.979v-.948a4.194,4.194,0,0,1-2.979,1.219c-2.844-.135-4.6-2.031-4.6-5.282" transform="translate(9.175 16.507)"/>
        <path id="Path_236" data-name="Path 236" d="M608.242,63.988H601.2V51.8h3.25v9.48h3.792Z" transform="translate(12.363 15.941)"/>
        <path id="Path_237" data-name="Path 237" d="M610.45,64.484h-2.979V54.6h2.979ZM607.2,52.161a1.761,1.761,0,0,1,3.521,0,1.825,1.825,0,0,1-1.9,1.76c-.812.135-1.625-.677-1.625-1.76" transform="translate(14.488 15.445)"/>
        <path id="Path_238" data-name="Path 238" d="M615.511,55.938a2.066,2.066,0,0,0-2.031,2.3,2.148,2.148,0,0,0,2.031,2.3,2.277,2.277,0,0,0,2.3-2.3,2.2,2.2,0,0,0-2.3-2.3M610.5,58.375c0-2.708,1.625-4.875,4.334-4.875a3.841,3.841,0,0,1,2.979,1.354V53.771h2.844v8.667c0,2.979-2.3,4.6-5.011,4.6-2.438,0-4.469-1.219-4.875-3.386h3.386a1.545,1.545,0,0,0,1.625.813c1.083,0,2.031-.542,2.031-1.49V62.3a4.226,4.226,0,0,1-2.844,1.083,4.894,4.894,0,0,1-4.469-5.011" transform="translate(15.657 16.543)"/>
        <path id="Path_239" data-name="Path 239" d="M624.181,56.244a2.283,2.283,0,0,0-2.3,2.3,2.212,2.212,0,0,0,2.167,2.438,2.346,2.346,0,0,0,2.438-2.438,2.2,2.2,0,0,0-2.3-2.3m-5.281,2.3a4.98,4.98,0,0,1,4.74-5.146,3.9,3.9,0,0,1,2.844,1.219v-.948h2.979v9.886h-2.979v-.948a4.194,4.194,0,0,1-2.979,1.219c-2.708-.135-4.6-2.031-4.6-5.282" transform="translate(18.633 16.507)"/>
        <path id="Path_240" data-name="Path 240" d="M580.926,69.9a5.676,5.676,0,0,0-.542-2.031l-3.115-5.417a4.055,4.055,0,0,1-.542-1.354l-.135.271a4.157,4.157,0,0,0,0,4.334l2.438,4.334a4.157,4.157,0,0,1,0,4.334l-.135.271a5.659,5.659,0,0,0-.542-1.354l-2.3-3.927-1.49-2.573a4.057,4.057,0,0,1-.542-1.354l-.135.271a4.157,4.157,0,0,0,0,4.334h0l2.438,4.334a4.157,4.157,0,0,1,0,4.334l-.135.271a5.662,5.662,0,0,0-.542-1.354L572.529,72.2a3.444,3.444,0,0,1-.542-2.3c-3.386.813-5.688,2.708-5.688,4.875,0,2.979,4.469,5.417,10.021,5.417s10.021-2.438,10.021-5.417c.271-2.167-2.031-3.927-5.417-4.875m9.48,9.209a3.932,3.932,0,0,1,.406-1.9,7.948,7.948,0,0,0,3.386.677c1.76,0,2.708-.542,2.708-1.625s-.677-1.625-2.438-2.3l-.948-.406c-1.76-.813-2.979-1.761-2.979-3.792,0-2.167,1.49-3.521,4.469-3.521a9.35,9.35,0,0,1,3.386.542,3.932,3.932,0,0,1-.406,1.9,8.4,8.4,0,0,0-3.115-.542c-1.625,0-2.438.677-2.438,1.625s.677,1.49,2.031,2.031l.948.406c2.438.948,3.386,2.031,3.386,3.927,0,2.167-1.625,3.656-4.875,3.656a6.336,6.336,0,0,1-3.521-.677m18.688-8.938v9.344h-1.9l-.135-1.083a2.911,2.911,0,0,1-2.573,1.354c-2.438,0-4.063-1.761-4.063-4.875,0-3.25,1.761-5.146,5.282-5.146a7.1,7.1,0,0,1,3.386.406m-2.031,7.313V71.663a5.078,5.078,0,0,0-1.49-.135c-2.167,0-3.115,1.354-3.115,3.386,0,1.9.812,3.25,2.573,3.25a3.326,3.326,0,0,0,2.031-.677m12.594-4.2v6.229h-2.031V73.559c0-1.49-.542-2.167-2.573-2.167a6.593,6.593,0,0,0-1.625.135v7.99H611.26V70.173a21.247,21.247,0,0,1,3.792-.542c3.521,0,4.6,1.354,4.6,3.656m5.688,4.74a5.82,5.82,0,0,0,1.625-.271,7.925,7.925,0,0,1-.271,1.761,4,4,0,0,1-1.761.271c-2.031,0-3.25-.948-3.25-3.25V66.652a5.612,5.612,0,0,1,2.031-.271V69.9h3.25c0,.677-.135,1.219-.135,1.761h-3.115v4.6c0,1.354.677,1.76,1.625,1.76m10.969-7.855v9.344h-1.9l-.135-1.083a2.911,2.911,0,0,1-2.573,1.354c-2.438,0-4.063-1.761-4.063-4.875,0-3.25,1.76-5.146,5.282-5.146a7.1,7.1,0,0,1,3.386.406m-2.031,7.313V71.663a5.077,5.077,0,0,0-1.49-.135c-2.167,0-3.115,1.354-3.115,3.386,0,1.9.813,3.25,2.573,3.25a3.326,3.326,0,0,0,2.031-.677m12.594-4.2v6.229h-2.031V73.559c0-1.49-.542-2.167-2.573-2.167a6.594,6.594,0,0,0-1.625.135v7.99h-2.031V70.173a21.247,21.247,0,0,1,3.792-.542c3.386,0,4.469,1.354,4.469,3.656M657.3,66.517V79.653h-1.9l-.135-1.219a3.078,3.078,0,0,1-2.708,1.49c-2.438,0-4.063-1.761-4.063-4.875,0-3.25,1.76-5.146,5.281-5.146a5.077,5.077,0,0,1,1.49.135V66.923a3.663,3.663,0,0,1,2.031-.406m-2.031,10.834V71.528a6.593,6.593,0,0,0-1.625-.135c-2.031,0-2.979,1.219-2.979,3.386,0,1.9.813,3.25,2.573,3.25a2.659,2.659,0,0,0,2.031-.677m12.459-1.761H661.1c.271,1.625,1.219,2.438,3.115,2.438a8.716,8.716,0,0,0,3.25-.677c-.135.542-.135,1.219-.271,1.9a7.288,7.288,0,0,1-2.979.542c-3.386,0-5.146-1.9-5.146-5.146,0-2.844,1.354-5.011,4.6-5.011,2.979,0,4.2,1.9,4.2,4.334,0,.542-.135,1.083-.135,1.625M661.1,73.83h4.6a2.174,2.174,0,0,0-2.3-2.438c-1.354,0-2.167.813-2.3,2.438m13.813-4.063c0,.677-.135,1.354-.135,1.76-.542,0-.948-.135-1.49-.135a5.554,5.554,0,0,0-1.49.135v7.99h-2.031V70.173a12.828,12.828,0,0,1,3.521-.542,6.593,6.593,0,0,1,1.625.135" transform="translate(0 19.235)" fill="#de1425"/>
      </g>
    </g>
  </g>
</svg>
