<svg xmlns="http://www.w3.org/2000/svg" width="177" height="129" viewBox="0 0 177 129">
  <g id="cl-6" transform="translate(-1190 -59)">
    <rect id="Rectangle_51" data-name="Rectangle 51" width="177" height="129" transform="translate(1190 59)" fill="#ffffff" fill-opacity="0"/>
    <g id="Group_46" data-name="Group 46" transform="translate(1228 103)">
      <path id="Path_96" data-name="Path 96" d="M726.2,20.7V43.4a18.736,18.736,0,0,0,18.7,18.7,19.043,19.043,0,0,0,12.3-4.6h70.6V20.7Z" transform="translate(-726.2 -20.7)" fill="#e20b21"/>
      <g id="Group_36" data-name="Group 36" transform="translate(30.6 37.9)">
        <path id="Path_97" data-name="Path 97" d="M759.7,60.3l.3-.8.1-.3v1.1h.4V58.6H760s-.4,1.1-.4,1.2c0-.1-.4-1.2-.4-1.2h-.5v1.7h.4V59.2l.1.3.3.8Z" transform="translate(-756.8 -58.6)"/>
        <path id="Path_98" data-name="Path 98" d="M758.2,58.6v.3h-.5v1.4h-.4V58.9h-.5v-.3h1.4" transform="translate(-756.8 -58.6)"/>
      </g>
      <g id="Group_37" data-name="Group 37" transform="translate(1.9 1.9)">
        <path id="Path_99" data-name="Path 99" d="M761.7,43.4a16.8,16.8,0,1,1-33.6,0V22.6h33.7l-.1,20.8Z" transform="translate(-728.1 -22.6)" fill="#fff"/>
      </g>
      <g id="Group_39" data-name="Group 39" transform="translate(3.5 3.6)">
        <path id="Path_100" data-name="Path 100" d="M741.6,24.3V40.1l-.1.1H729.7v3.2a15.1,15.1,0,1,0,30.2,0V24.3Z" transform="translate(-729.7 -24.3)"/>
        <path id="Path_101" data-name="Path 101" d="M751.5,45.4a4.7,4.7,0,1,0,4.7,4.7A4.695,4.695,0,0,0,751.5,45.4Z" transform="translate(-729.7 -24.3)" fill="#e20b21"/>
        <g id="Group_38" data-name="Group 38" transform="translate(10.5 14.5)">
          <path id="Path_102" data-name="Path 102" d="M744.9,38.8a4.7,4.7,0,1,0,4.7,4.7A4.695,4.695,0,0,0,744.9,38.8Z" transform="translate(-740.2 -38.8)" fill="#fff"/>
        </g>
      </g>
      <path id="Path_103" data-name="Path 103" d="M772.2,31.5v1.6h-1.3V31.5Zm-2.1-.9v5.8H773V30.6Zm2.1,3.3v1.7h-1.3V33.9Zm1.6-3.4V34c0,2.2-.7,2.9-1.8,3.5l.6.7a3.8,3.8,0,0,0,2-2.7h2.2V37c0,.3,0,.3-.3.3h-.6l.2.9h.8c.2,0,.8-.1.8-.7v-7Zm3,.8v1.3h-2.1V31.3Zm0,2.1v1.3h-2.1V33.4Zm7.8,1.8v1.9h-2.7V35.2Zm-3.6-.8v3.5h4.5V34.4Zm-.6-1.4.1.8a35.285,35.285,0,0,0,4.8-.3,5.74,5.74,0,0,1,.4.7l.8-.6a13.95,13.95,0,0,0-1.6-2.2l-.7.5a7.051,7.051,0,0,1,.7.9,18.521,18.521,0,0,1-2.5.1,12.193,12.193,0,0,0,1.1-2.5l-1-.3a13.194,13.194,0,0,1-1.2,2.7Zm-1.7-2a10.99,10.99,0,0,1,1.4.9l.5-.8a5.479,5.479,0,0,0-1.4-.8Zm-.4,2.3c.6.3.9.5,1.4.8l.5-.8a9.352,9.352,0,0,0-1.5-.8Zm1.5,1.5a10.541,10.541,0,0,1-1.6,2.5l.6.9a11.007,11.007,0,0,0,1.7-2.8Zm12.5-.6a4.074,4.074,0,0,1-1.1,1.8c-.7-.2-1.4-.5-2.1-.7a7.172,7.172,0,0,0,.7-1.1Zm-2.7-2a7.811,7.811,0,0,1-.5,1.2h-2.3v.9h1.9a14.867,14.867,0,0,1-1.1,1.5,19.1,19.1,0,0,1,2.6.9,9.557,9.557,0,0,1-3.2.7l.3.9a9.9,9.9,0,0,0,3.9-1.2,14.672,14.672,0,0,1,2.6,1.3l.6-.8a21.108,21.108,0,0,0-2.4-1.1,5.488,5.488,0,0,0,1.2-2.1h1.5v-.9h-4.5a2.669,2.669,0,0,0,.4-1ZM787,33h.9V31.9h5.7V33h.9V31.1h-3.3v-.8h-.9v.8H787Zm11.7-1.5V34h-2.3V31.5ZM795.6,38h7.2V30.7h-7.2Zm3.1-3.2v2.4h-2.3V34.8Zm3.2-3.3V34h-2.3V31.5Zm0,3.3v2.4h-2.3V34.8Zm3.3-1.9a7.342,7.342,0,0,1-1,1.4l-.7-.6a6.136,6.136,0,0,0,1.6-3.1l.9.2c-.1.3-.2.7-.4,1.4h1.6V30.5h.9v1.7h3.1v.9h-3.1v1.7h2.8v.9h-2.8v1.6h3.4v.9h-7.8v-.9h3.5V35.7h-2.9v-.9h2.9V33.1h-2Zm9.5,1.6V37h-1.2V34.5Zm-2-.8v4h2.9v-4Zm1.4-.6h4v-.6a10.182,10.182,0,0,0,1.7.8l.5-.9a8.192,8.192,0,0,1-3.7-2.3h-.9c-.4.5-1.2,1.4-3.7,2.3l.4.9c.4-.2,1-.4,1.7-.8Zm.3-.8h0a6.136,6.136,0,0,0,1.7-1.4,9.018,9.018,0,0,0,1.7,1.4h-3.4Zm1.9,1.4v4.5h.8V34.5h1.4v2c0,.2-.1.2-.3.2h-.8l.1.9h1.1c.7,0,.7-.6.7-.9v-3Z" transform="translate(-726.2 -20.7)" fill="#fff"/>
      <g id="Group_45" data-name="Group 45" transform="translate(43.4 20.8)">
        <g id="Group_44" data-name="Group 44">
          <g id="Group_42" data-name="Group 42" transform="translate(0 0.2)">
            <g id="Group_41" data-name="Group 41">
              <g id="Group_40" data-name="Group 40">
                <path id="Path_104" data-name="Path 104" d="M770.3,46.5l-.7.8a1.874,1.874,0,0,0,3.3-1.3V42.7h.8v-1h-2.6v1h.8v3.2C771.9,46.9,770.9,47.1,770.3,46.5Z" transform="translate(-769.6 -41.7)" fill="#fff"/>
              </g>
            </g>
          </g>
          <g id="Group_43" data-name="Group 43" transform="translate(12.4)">
            <path id="Path_105" data-name="Path 105" d="M789.5,44.9v1.7h2.1v-1h1.1v2h-5v-1h.7V42.7h-.7v-1h5v1.8h-1.1v-.8h-2.1V44h1.6v.9Z" transform="translate(-782 -41.5)" fill="#fff"/>
            <path id="Path_106" data-name="Path 106" d="M804.7,43.4a1.9,1.9,0,0,0-1.5-.8,2,2,0,1,0,0,4,1.831,1.831,0,0,0,1.8-1.3h-1.9v-1h3.1v.2a3.058,3.058,0,0,1-3,3.2,3.1,3.1,0,1,1,1.6-5.7v-.3h1v2.1h-1l-.1-.4Z" transform="translate(-782 -41.5)" fill="#fff"/>
            <path id="Path_107" data-name="Path 107" d="M798.4,41.7v1h-.7l1.6,3.9h.6v1h-2.4v-1h.6l-1.4-3.7-1.4,3.7h.7v1h-2.4v-1h.6l1.6-3.9h-.7v-1Z" transform="translate(-782 -41.5)" fill="#fff"/>
            <path id="Path_108" data-name="Path 108" d="M810,47.7a2.392,2.392,0,0,1-2.4-2.5V42.7h-.8v-1h2.5v1h-.8v2.5a1.4,1.4,0,1,0,2.8,0V42.7h-.8v-1H813v1h-.8v2.5A2.145,2.145,0,0,1,810,47.7Z" transform="translate(-782 -41.5)" fill="#fff"/>
            <path id="Path_109" data-name="Path 109" d="M815.8,44.9v1.7H818v-1h1v2h-4.9v-1h.7V42.7h-.7v-1H819v1.8h-1v-.8h-2.2V44h1.7v.9Z" transform="translate(-782 -41.5)" fill="#fff"/>
            <path id="Path_110" data-name="Path 110" d="M784.6,41.7H782v1h.8v3.9H782v1h4.8v-2h-1.1v1h-1.9V42.7h.8Z" transform="translate(-782 -41.5)" fill="#fff"/>
          </g>
        </g>
        <path id="Path_111" data-name="Path 111" d="M775.4,41.7v1h.8v3.9h-.8v1H778v-1h-.8V41.7Z" transform="translate(-769.6 -41.5)" fill="#fff"/>
      </g>
    </g>
  </g>
</svg>
