<svg xmlns="http://www.w3.org/2000/svg" width="177" height="129" viewBox="0 0 177 129">
  <g id="cl-8" transform="translate(-1680 -59)">
    <rect id="Rectangle_52" data-name="Rectangle 52" width="177" height="129" transform="translate(1680 59)" fill="#ffffff" fill-opacity="0"/>
    <g id="Group_13" data-name="Group 13" transform="translate(1722 102)">
      <path id="Path_11" data-name="Path 11" d="M1054.7,61.5a.576.576,0,0,1,.6-.6h1.9a1.917,1.917,0,0,1,2,2.1,1.941,1.941,0,0,1-2,2h-1.4v1.1c0,.4-.2.6-.5.6a.576.576,0,0,1-.6-.6Zm1.1.5v2h1.4a1.075,1.075,0,0,0,1-1,.945.945,0,0,0-1-1Z" transform="translate(-1048.2 -23.4)" fill="#0c161c"/>
      <path id="Path_12" data-name="Path 12" d="M1063.9,66.1a.551.551,0,0,1-1.1,0V61.5a.472.472,0,0,1,.5-.5h2.2a1.837,1.837,0,0,1,.8,3.5l1.1,1.3a.541.541,0,1,1-.9.6l-1.2-1.8H1064l-.1,1.5Zm0-2.4h1.6a.85.85,0,0,0,0-1.7h-1.6Z" transform="translate(-1048.2 -23.4)" fill="#0c161c"/>
      <path id="Path_13" data-name="Path 13" d="M1074.1,66.7a2.822,2.822,0,0,1-3.1-2.9,3,3,0,1,1,6,0A2.833,2.833,0,0,1,1074.1,66.7Zm-.1-4.8a1.9,1.9,0,1,0,0,3.8,1.9,1.9,0,0,0,1.9-1.9A1.832,1.832,0,0,0,1074,61.9Z" transform="translate(-1048.2 -23.4)" fill="#0c161c"/>
      <path id="Path_14" data-name="Path 14" d="M1081.9,63.1v3a.576.576,0,0,1-.6.6c-.3,0-.5-.2-.5-.6V61.5a.646.646,0,0,1,.5-.6.55.55,0,0,1,.5.3l1.8,2.4,1.9-2.5a.519.519,0,0,1,.9.4v4.6c0,.4-.2.6-.5.6s-.5-.2-.5-.6v-3l-1.4,1.7c-.3.4-.7.4-.9,0Z" transform="translate(-1048.2 -23.4)" fill="#0c161c"/>
      <path id="Path_15" data-name="Path 15" d="M1093.3,66.7a2.822,2.822,0,0,1-3.1-2.9,3,3,0,1,1,6,0A2.833,2.833,0,0,1,1093.3,66.7Zm-.1-4.8a1.9,1.9,0,1,0,0,3.8,1.9,1.9,0,0,0,1.9-1.9A1.832,1.832,0,0,0,1093.2,61.9Z" transform="translate(-1048.2 -23.4)" fill="#0c161c"/>
      <path id="Path_16" data-name="Path 16" d="M1101.6,62h-1.4a.5.5,0,1,1,0-1h3.9a.5.5,0,1,1,0,1h-1.4v4.1a.551.551,0,0,1-1.1,0Z" transform="translate(-1048.2 -23.4)" fill="#0c161c"/>
      <path id="Path_17" data-name="Path 17" d="M1108.2,61.5a.551.551,0,0,1,1.1,0v4.6a.551.551,0,0,1-1.1,0Z" transform="translate(-1048.2 -23.4)" fill="#0c161c"/>
      <path id="Path_18" data-name="Path 18" d="M1116.3,66.7a2.822,2.822,0,0,1-3.1-2.9,3,3,0,1,1,6,0A2.833,2.833,0,0,1,1116.3,66.7Zm-.1-4.8a1.9,1.9,0,1,0,0,3.8,1.9,1.9,0,0,0,1.9-1.9A1.832,1.832,0,0,0,1116.2,61.9Z" transform="translate(-1048.2 -23.4)" fill="#0c161c"/>
      <path id="Path_19" data-name="Path 19" d="M1123,61.6c0-.3.1-.6.5-.6a.713.713,0,0,1,.6.3l2.7,3.4V61.5a.56.56,0,0,1,.5-.6.645.645,0,0,1,.6.6v4.6a.575.575,0,0,1-.4.6c-.3,0-.4-.1-.7-.3l-2.7-3.4v3.1c0,.4-.2.6-.5.6a.576.576,0,0,1-.6-.6V61.6Z" transform="translate(-1048.2 -23.4)" fill="#0c161c"/>
      <path id="Path_20" data-name="Path 20" d="M1131.8,62.2c.2-1.6,2.6-1.9,3.7-1,.6.4,0,1.2-.5.8-.6-.4-2-.6-2.1.3-.2,1.3,3.3.6,3.3,2.7-.1,2.1-3.1,2.1-4.2,1.2a.529.529,0,0,1-.1-.8.483.483,0,0,1,.7-.1c.7.5,2.4.8,2.5-.4C1134.9,63.8,1131.5,64.5,1131.8,62.2Z" transform="translate(-1048.2 -23.4)" fill="#0c161c"/>
      <g id="Group_8" data-name="Group 8">
        <g id="Group_7" data-name="Group 7">
          <path id="Path_21" data-name="Path 21" d="M1076.6,32a23.429,23.429,0,0,0-9.4-2.1c-6.3,0-10.9,3.9-10.9,9.9,0,4.9,3.1,9.9,11.3,9.9a15.521,15.521,0,0,0,2.3-.1V45h-3.2V38.6H1077V54.7a53.08,53.08,0,0,1-10.3,1.1c-13.4,0-17.9-8.4-17.9-15.7,0-8.4,5.9-16,17.9-16a26.962,26.962,0,0,1,9.8,1.7l.1,6.2Z" transform="translate(-1048.2 -23.4)" fill="#0c161c"/>
          <path id="Path_22" data-name="Path 22" d="M1066.8,56.5c-6.3,0-11.2-1.8-14.5-5.3a16.024,16.024,0,0,1-4.1-11.1c0-8.3,5.8-16.7,18.6-16.7a27.488,27.488,0,0,1,10.1,1.8l.5.2v7.8l-1.1-.5a21.266,21.266,0,0,0-9.1-2c-6,0-10.1,3.7-10.1,9.2,0,6.7,5.4,9.1,10.5,9.1a8.083,8.083,0,0,0,1.6-.1V45.7H1066V37.8h11.8V55.3l-.6.1A50.67,50.67,0,0,1,1066.8,56.5Zm0-31.6c-8.5,0-17.1,4.7-17.1,15.3,0,7.2,4.5,14.9,17.1,14.9a56.938,56.938,0,0,0,9.6-.9V39.3h-8.8v4.9h3.2v6l-.6.1a17.723,17.723,0,0,1-2.4.1c-3.9,0-7.1-1.1-9.2-3.3a10.37,10.37,0,0,1-2.8-7.3c0-6.3,4.8-10.7,11.6-10.7a22.736,22.736,0,0,1,8.6,1.7V26.3A29.6,29.6,0,0,0,1066.8,24.9Z" transform="translate(-1048.2 -23.4)" fill="#dbb231"/>
        </g>
      </g>
      <g id="Group_10" data-name="Group 10" transform="translate(31.7)">
        <g id="Group_9" data-name="Group 9">
          <path id="Path_23" data-name="Path 23" d="M1108.4,32a23.429,23.429,0,0,0-9.4-2.1c-6.3,0-10.9,3.9-10.9,9.9,0,4.9,3.1,9.9,11.3,9.9a15.521,15.521,0,0,0,2.3-.1V45h-3.2V38.6h10.3V54.7a53.08,53.08,0,0,1-10.3,1.1c-13.4,0-17.9-8.4-17.9-15.7,0-8.4,5.9-16,17.9-16a26.962,26.962,0,0,1,9.8,1.7l.1,6.2Z" transform="translate(-1079.9 -23.4)" fill="#0c161c"/>
          <path id="Path_24" data-name="Path 24" d="M1098.5,56.5c-6.3,0-11.2-1.8-14.5-5.3a16.024,16.024,0,0,1-4.1-11.1c0-8.3,5.8-16.7,18.6-16.7a27.488,27.488,0,0,1,10.1,1.8l.5.2v7.8l-1.1-.5a21.266,21.266,0,0,0-9.1-2c-6,0-10.1,3.7-10.1,9.2,0,6.7,5.4,9.1,10.5,9.1a8.083,8.083,0,0,0,1.6-.1V45.7h-3.2V37.8h11.8V55.3l-.6.1A49.828,49.828,0,0,1,1098.5,56.5Zm0-31.6c-8.5,0-17.1,4.7-17.1,15.3,0,7.2,4.5,14.9,17.1,14.9a56.938,56.938,0,0,0,9.6-.9V39.3h-8.8v4.9h3.2v6l-.6.1a17.723,17.723,0,0,1-2.4.1c-3.9,0-7.1-1.1-9.2-3.3a10.37,10.37,0,0,1-2.8-7.3c0-6.3,4.8-10.7,11.6-10.7a22.736,22.736,0,0,1,8.6,1.7V26.3A29.6,29.6,0,0,0,1098.5,24.9Z" transform="translate(-1079.9 -23.4)" fill="#dbb231"/>
        </g>
      </g>
      <g id="Group_12" data-name="Group 12" transform="translate(63.5)">
        <g id="Group_11" data-name="Group 11">
          <path id="Path_25" data-name="Path 25" d="M1140.1,32a23.429,23.429,0,0,0-9.4-2.1c-6.3,0-10.9,3.9-10.9,9.9,0,4.9,3.1,9.9,11.3,9.9a15.521,15.521,0,0,0,2.3-.1V45h-3.2V38.6h10.3V54.7a53.08,53.08,0,0,1-10.3,1.1c-13.4,0-17.9-8.4-17.9-15.7,0-8.4,5.9-16,17.9-16a26.962,26.962,0,0,1,9.8,1.7l.1,6.2Z" transform="translate(-1111.7 -23.4)" fill="#0c161c"/>
          <path id="Path_26" data-name="Path 26" d="M1130.3,56.5c-6.3,0-11.2-1.8-14.5-5.3a16.024,16.024,0,0,1-4.1-11.1c0-8.3,5.8-16.7,18.6-16.7a27.488,27.488,0,0,1,10.1,1.8l.5.2v7.8l-1.1-.5a21.266,21.266,0,0,0-9.1-2c-6,0-10.1,3.7-10.1,9.2,0,6.7,5.4,9.1,10.5,9.1a8.083,8.083,0,0,0,1.6-.1V45.7h-3.2V37.8h11.8V55.3l-.6.1A51.531,51.531,0,0,1,1130.3,56.5Zm0-31.6c-8.5,0-17.1,4.7-17.1,15.3,0,7.2,4.5,14.9,17.1,14.9a56.938,56.938,0,0,0,9.6-.9V39.3h-8.8v4.9h3.2v6l-.6.1a17.723,17.723,0,0,1-2.4.1c-3.9,0-7.1-1.1-9.2-3.3a10.37,10.37,0,0,1-2.8-7.3c0-6.3,4.8-10.7,11.6-10.7a22.736,22.736,0,0,1,8.6,1.7V26.3A30.552,30.552,0,0,0,1130.3,24.9Z" transform="translate(-1111.7 -23.4)" fill="#dbb231"/>
        </g>
      </g>
    </g>
  </g>
</svg>
