<svg xmlns="http://www.w3.org/2000/svg" width="177" height="129" viewBox="0 0 177 129">
  <g id="cl-9" transform="translate(-63 -214)">
    <rect id="Rectangle_59" data-name="Rectangle 59" width="177" height="129" transform="translate(63 214)" fill="#ffffff" fill-opacity="0"/>
    <g id="Group_6" data-name="Group 6" transform="translate(76 268)">
      <circle id="Ellipse_1" data-name="Ellipse 1" cx="2.2" cy="2.2" r="2.2" transform="translate(145.7 16.3)" fill="#140500"/>
      <path id="Path_2" data-name="Path 2" d="M8.1,158.7H12v1.5a4.794,4.794,0,0,1,3.8-1.8,4.94,4.94,0,0,1,4.4,2.2,5.312,5.312,0,0,1,4.4-2.2c3.6,0,5.4,2.2,5.4,5.8v8.7H26.1v-8.1c0-1.9-.7-3-2.5-3-1.5,0-2.6,1-2.6,3.4v7.7H17.1v-8.1c0-1.9-.7-3-2.5-3-1.5,0-2.6,1-2.6,3.4v7.7H8.1V158.7Z" transform="translate(-8.1 -152.2)" fill="#140500"/>
      <path id="Path_3" data-name="Path 3" d="M31.6,165.8a6.963,6.963,0,0,1,6.9-7.4,5.62,5.62,0,0,1,4.2,1.7v-1.4h3.9v14.2H42.7v-1.6a5.461,5.461,0,0,1-4.3,1.9A7,7,0,0,1,31.6,165.8Zm11.2,0a3.633,3.633,0,0,0-3.6-3.8,3.8,3.8,0,0,0,0,7.6A3.633,3.633,0,0,0,42.8,165.8Z" transform="translate(-8.1 -152.2)" fill="#140500"/>
      <path id="Path_4" data-name="Path 4" d="M48.1,158.7h2.4v-3.3l3.9-2.1v5.4h3.8L57,162.2H54.4v4.5c0,2.2.3,2.6,2.7,2.6v3.6h-.6c-4.5,0-6-1.5-6-6.2v-4.5H48.1S48.1,158.7,48.1,158.7Z" transform="translate(-8.1 -152.2)" fill="#140500"/>
      <path id="Path_5" data-name="Path 5" d="M58.2,165.8a7.362,7.362,0,0,1,7.3-7.4,7.135,7.135,0,0,1,6.8,4.5l-3.5,1.5a3.568,3.568,0,0,0-6.9,1.4,3.671,3.671,0,0,0,3.6,3.7,3.458,3.458,0,0,0,3.3-2.3l3.6,1.5a7.281,7.281,0,0,1-6.8,4.5A7.383,7.383,0,0,1,58.2,165.8Z" transform="translate(-8.1 -152.2)" fill="#140500"/>
      <path id="Path_6" data-name="Path 6" d="M73.9,152.2h3.9v8.1a5,5,0,0,1,3.9-1.8c3.3,0,5.4,2.2,5.4,5.8V173H83.2v-8.1c0-1.9-.9-3-2.6-3-1.5,0-2.7,1-2.7,3.4V173H74l-.1-20.8Z" transform="translate(-8.1 -152.2)" fill="#140500"/>
      <path id="Path_7" data-name="Path 7" d="M89,158.7h3.9V161a3.944,3.944,0,0,1,3.9-2.3H98l-1.2,3.8h-.9c-2.1,0-3,1.1-3,3.7v6.7H89Z" transform="translate(-8.1 -152.2)" fill="#140500"/>
      <path id="Path_8" data-name="Path 8" d="M97.8,165.8a7.35,7.35,0,1,1,7.3,7.4A7.362,7.362,0,0,1,97.8,165.8Zm10.9,0a3.671,3.671,0,0,0-3.6-3.7,3.706,3.706,0,0,0,0,7.4A3.671,3.671,0,0,0,108.7,165.8Z" transform="translate(-8.1 -152.2)" fill="#140500"/>
      <path id="Path_9" data-name="Path 9" d="M113.7,165.8a7.35,7.35,0,1,1,7.3,7.4A7.362,7.362,0,0,1,113.7,165.8Zm10.9,0a3.671,3.671,0,0,0-3.6-3.7,3.706,3.706,0,0,0,0,7.4A3.671,3.671,0,0,0,124.6,165.8Z" transform="translate(-8.1 -152.2)" fill="#140500"/>
      <path id="Path_10" data-name="Path 10" d="M130,158.7h3.9v1.5a4.794,4.794,0,0,1,3.8-1.8,4.94,4.94,0,0,1,4.4,2.2,5.312,5.312,0,0,1,4.4-2.2c3.6,0,5.4,2.2,5.4,5.8v8.7H148v-8.1c0-1.9-.7-3-2.5-3-1.5,0-2.6,1-2.6,3.4v7.7H139v-8.1c0-1.9-.7-3-2.5-3-1.5,0-2.6,1-2.6,3.4v7.7H130V158.7Z" transform="translate(-8.1 -152.2)" fill="#140500"/>
    </g>
  </g>
</svg>
